<?xml version="1.0" encoding="UTF-8"?>
<svg width="100px" height="22px" viewBox="0 0 100 22" version="1.1" xmlns="http://www.w3.org/2000/svg" xmlns:xlink="http://www.w3.org/1999/xlink">
    <!-- Generator: Sketch 48.2 (47327) - http://www.bohemiancoding.com/sketch -->
    <title>Folksam_logo3</title>
    <desc>Created with Sketch.</desc>
    <defs></defs>
    <g id="Page-1" stroke="none" stroke-width="1" fill="none" fill-rule="evenodd">
        <g id="Folksam_logo3" fill="#009FE0" fill-rule="nonzero">
            <path d="M21.0456643,6.69 C17.8666434,6.6934965 14.5281818,8.8948951 14.5351748,13.9585315 C14.5421678,19.4627273 18.4079021,21.4459441 21.1967133,21.4424476 C24.0002098,21.438951 27.7113986,19.4641259 27.7037063,14.0354545 C27.6967133,8.8886014 24.4687413,6.6858042 21.0456643,6.69 Z M23.8372727,14.8955944 C23.8218881,19.1515385 22.7505594,20.7557343 21.1044056,20.7578322 C19.2079021,20.7599301 18.3862238,18.5074825 18.4051049,13.2235664 C18.4204895,8.93265734 19.4988112,7.3913986 21.1120979,7.3893007 C23.3582517,7.3865035 23.8554545,9.89 23.8372727,14.8955944 Z M8.14566434,10.296993 L7.28902098,10.296993 L7.28902098,0.731258741 L10.861049,0.731258741 C14.4540559,0.731258741 16.0288811,2.09979021 16.468042,5.44524476 L16.761049,5.44524476 L16.761049,0.0711188811 L0.247762238,0.0711188811 L0.247762238,0.429160839 C2.62818182,0.397692308 3.3072028,1.05013986 3.3072028,3.4934965 L3.3072028,17.7739161 C3.3072028,19.9207692 2.86594406,20.8893007 0.247762238,20.8102797 L0.247762238,21.2452448 L10.2673427,21.2452448 L10.2673427,20.8123776 C8.86524476,20.8284615 8.33307692,20.6641259 7.85755245,20.1284615 C7.45195804,19.6718182 7.28622378,18.9906993 7.28622378,17.776014 L7.28622378,10.9340559 L7.80230769,10.9340559 C10.7365734,10.9340559 12.3288811,12.541049 12.5372727,15.7116783 L12.8274825,15.7116783 L12.8274825,5.76972028 L12.5414685,5.76972028 C12.416993,8.60888112 10.7841259,10.296993 8.14566434,10.296993 Z M33.3337762,19.0347552 L33.3337762,0.0711188811 L27.6372727,0.0711188811 L27.6372727,0.415174825 C29.3302797,0.52006993 29.6484615,1.02916084 29.6484615,2.60188811 L29.6484615,18.8144755 C29.6484615,20.117972 29.1155944,20.7214685 27.6372727,20.8102797 L27.6372727,21.1711189 L35.003007,21.1711189 L35.003007,20.8095804 C33.8267832,20.7424476 33.3337762,20.1997902 33.3337762,19.0347552 Z M48.2869231,17.8627273 L44.5288811,11.8277622 L45.9624476,10.1865035 C48.2218881,7.70188811 48.761049,7.31447552 50.5603497,7.24454545 L50.5603497,6.91027972 L44.5785315,6.91027972 L44.5785315,7.22286713 C45.337972,7.24664336 46.2323776,7.3927972 46.2323776,8.45083916 C46.2323776,9.06132867 45.6687413,9.43895105 44.668042,10.6214685 L41.1932168,14.5438462 L41.1862238,0.0711188811 L35.4897203,0.0711188811 L35.4897203,0.427762238 C37.1484615,0.517972028 37.5037063,1.05363636 37.5037063,2.71517483 L37.5037063,18.4941958 C37.5037063,19.8802098 37.1484615,20.731958 35.4897203,20.8207692 L35.4897203,21.1711189 L43.0442657,21.1711189 L43.0442657,20.8214685 C41.4554545,20.6732168 41.1862238,20.0648252 41.1862238,18.6354545 L41.1862238,15.6725175 L42.1953147,14.5256643 L44.9470629,19.1074825 C45.1582517,19.4382517 45.3337762,19.8529371 45.3337762,20.076014 C45.3337762,20.5368531 44.9624476,20.8102797 44.4771329,20.8102797 L44.4771329,21.1711189 L51.2827273,21.1711189 L51.2827273,20.8102797 C50.1673427,20.6948951 49.6897203,20.010979 48.2869231,17.8627273 Z M97.8687413,19.0515385 L97.8687413,10.5606294 C97.8687413,8.33965035 96.6120979,6.69 94.3981119,6.69 C92.7400699,6.69 91.1463636,7.62706294 90.0260839,9.26132867 L89.8330769,9.61587413 L89.7330769,9.1872028 C89.3771329,7.61727273 88.0477622,6.69 86.2498601,6.69 C84.7568531,6.69 83.5316783,7.39909091 82.2764336,8.9906993 L81.8337762,9.55433566 L81.8337762,6.92846154 L76.3421678,6.92006993 L76.3421678,7.23265734 C77.8631469,7.49909091 78.0967133,8.23055944 78.0967133,9.61587413 L78.1512587,18.531958 C78.1512587,19.8305594 77.9722378,20.617972 76.5414685,20.8186713 L76.5414685,21.1711189 L83.2526573,21.1711189 L83.2526573,20.8151748 C82.1141958,20.6151748 81.8337762,19.9326573 81.8337762,18.6592308 L81.8337762,10.4564336 L81.9086014,10.3340559 C82.7799301,8.97881119 83.5799301,8.37391608 84.5016084,8.37391608 C85.0729371,8.37391608 86.1498601,8.65573427 86.1498601,10.3732168 L86.1498601,18.603986 C86.1498601,19.9438462 86.0023077,20.5906993 84.7204895,20.8214685 L84.7204895,21.1711189 L91.2757343,21.1711189 L91.2757343,20.8207692 C89.9715385,20.6172727 89.8330769,19.9501399 89.8330769,18.6976923 L89.8330769,10.5214685 L89.9687413,10.3263636 C91.0323776,8.84384615 91.7086014,8.34314685 92.6498601,8.34314685 C93.6428671,8.34314685 94.1855245,8.97811189 94.1855245,10.1858042 L94.1855245,18.4990909 C94.1855245,19.538951 94.0967133,20.5879021 92.7442657,20.817972 L92.7442657,21.1711189 L99.361049,21.1711189 L99.361049,20.8151748 C98.0729371,20.5879021 97.8799301,20.0774126 97.8687413,19.0515385 Z M75.4841259,20.2515385 C74.9093007,20.1844056 74.8176923,19.4809091 74.8281818,18.4137762 L74.9127972,11.4927972 C75.0722378,8.60678322 74.4834266,6.95853147 70.9946154,6.56342657 C68.0477622,6.22986014 65.651958,7.43755245 64.7743357,8.22286713 C63.7009091,9.18370629 63.5638462,10.0634266 63.5939161,10.5375524 C63.6582517,11.5417483 64.4701399,12.1473427 65.4498601,12.141049 C66.5575524,12.1333566 67.31,11.5543357 67.3148951,10.7578322 C67.3190909,10.1823077 67.0904196,9.92986014 66.8372727,9.57601399 C66.6358741,9.2934965 66.4456643,9.04384615 66.4806294,8.61657343 C66.5428671,7.87041958 67.6386713,7.23265734 69.21,7.22076923 C70.5715385,7.21027972 71.2834266,8.26832168 71.2120979,9.62356643 L71.1638462,12.0711189 C71.1638462,12.0711189 69.8470629,12.6221678 66.8176923,14.0025874 C64.4687413,15.0732168 63.4148951,16.3676224 63.2456643,17.7683217 C63.0204895,19.6340559 64.1435664,21.0662238 65.7547552,21.3781119 C66.9764336,21.6158741 68.151958,21.3032867 69.4883217,20.503986 C69.9155944,20.2494406 71.1337762,19.4396503 71.1337762,19.4396503 L71.1372727,19.4592308 C71.2981119,20.6634266 72.2904196,21.2452448 73.2225874,21.3906993 C74.0442657,21.5200699 75.2246853,21.4186713 76.3911189,20.2193706 L76.1079021,19.9375524 C75.8834266,20.1508392 75.6757343,20.2732168 75.4841259,20.2515385 Z M71.1023077,18.738951 C69.8065035,19.4585315 68.7813287,19.69 68.0617483,19.5662238 C66.6918182,19.3312587 66.2400699,17.8592308 66.5582517,16.8046853 C67.0288811,15.2466434 68.5106993,14.1865035 70.8848252,12.9913986 L71.1575524,12.8536364 L71.1023077,18.738951 Z M61.0072028,14.1802098 C60.1757343,13.3837063 58.496014,12.6795105 57.2939161,12.0515385 C56.0841259,11.4193706 53.2582517,10.4011888 54.31,8.37811189 C54.8351748,7.36832168 56.2918182,7.21307692 57.2414685,7.41027972 C58.1953147,7.60888112 59.0855245,8.16132867 59.7344755,8.87951049 C60.0561538,9.23615385 60.344965,9.65783217 60.5806294,10.062028 C60.9281818,10.6585315 61.1785315,11.4536364 61.1785315,11.4536364 L61.4659441,11.4557343 L61.4652448,6.72426573 L61.2218881,6.72286713 C60.9267832,7.26552448 60.5065035,7.59979021 59.9743357,7.61237762 C59.6582517,7.62006993 59.2764336,7.51727273 58.8358741,7.31867133 C58.182028,7.02496503 57.2365734,6.55223776 56.1533566,6.4886014 C52.7023077,6.28440559 51.2197902,8.91097902 51.4141958,10.8837063 C51.5344755,12.1158741 52.0253846,12.9361538 53.0491608,13.7543357 C54.6505594,15.0347552 55.9009091,15.3767133 57.8533566,16.4200699 C60.3162937,17.7361538 59.4407692,19.7158741 58.2351748,20.1934965 C57.2176923,20.5948951 55.8002098,20.483007 54.2995105,19.4809091 C53.9225874,19.2305594 53.444965,18.7837063 53.0358741,18.1858042 C52.7267832,17.7333566 52.4603497,17.1886014 52.289021,16.6032867 L51.9421678,16.5962937 L51.944965,21.2599301 L52.2806294,21.2599301 C52.4421678,20.8151748 52.582028,20.6018881 52.7463636,20.438951 C52.9065035,20.2795105 53.3204895,19.8809091 54.1540559,20.3053846 C54.7533566,20.6102797 55.2603497,20.876014 55.6484615,21.0333566 C56.4694406,21.3655245 56.9079021,21.4018881 57.223986,21.4368531 C59.8372727,21.7277622 62.4037063,20.0095804 62.4037063,17.1284615 C62.4037063,15.9781119 61.8596503,14.9955944 61.0072028,14.1802098 Z" id="Fill-1"></path>
        </g>
    </g>
</svg>