<?xml version="1.0" encoding="UTF-8" standalone="no"?>
<!-- Created with Inkscape (http://www.inkscape.org/) -->
<svg xmlns:inkscape="http://www.inkscape.org/namespaces/inkscape" xmlns:sodipodi="http://sodipodi.sourceforge.net/DTD/sodipodi-0.dtd" xmlns="http://www.w3.org/2000/svg" xmlns:svg="http://www.w3.org/2000/svg" version="1.1" id="svg2" xml:space="preserve" width="805.33331" height="640.66266" viewBox="0 0 805.33331 640.66266" sodipodi:docname="fobg.ai">
  <defs id="defs6">
    <clipPath id="clipPath16">
      <path d="M 0,480.497 H 604 V 0 H 0 Z" id="path14"></path>
    </clipPath>
  </defs>
  <g id="g8" inkscape:groupmode="layer" inkscape:label="fobg" transform="matrix(1.3333333,0,0,-1.3333333,0,640.66267)">
    <g id="g10">
      <g id="g12" clip-path="url(#clipPath16)">
        <g id="g18" transform="translate(352.3496,273.0066)">
          <path d="m 0,0 c -3.736,3.58 -11.286,6.745 -16.688,9.567 -5.438,2.841 -18.138,7.417 -13.412,16.51 2.361,4.538 8.908,5.236 13.175,4.35 4.287,-0.893 8.288,-3.376 11.205,-6.604 1.446,-1.603 2.743,-3.498 3.803,-5.314 1.563,-2.681 2.688,-6.255 2.688,-6.255 L 2.063,12.245 2.059,33.51 0.965,33.516 c -1.326,-2.439 -3.215,-3.941 -5.607,-3.998 -1.42,-0.034 -3.136,0.428 -5.117,1.32 -2.938,1.32 -7.187,3.445 -12.055,3.731 -15.511,0.918 -22.174,-10.887 -21.3,-19.754 0.54,-5.537 2.747,-9.224 7.347,-12.901 7.198,-5.755 12.818,-7.292 21.592,-11.981 11.071,-5.915 7.135,-14.813 1.717,-16.959 -4.573,-1.805 -10.944,-1.302 -17.688,3.202 -1.695,1.125 -3.841,3.134 -5.68,5.821 -1.389,2.033 -2.587,4.482 -3.357,7.112 l -1.558,0.032 0.012,-20.96 h 1.508 c 0.727,1.999 1.355,2.957 2.094,3.69 0.72,0.716 2.58,2.507 6.326,0.6 2.694,-1.37 4.973,-2.565 6.717,-3.272 3.689,-1.493 5.66,-1.657 7.081,-1.813 C -5.258,-33.922 6.276,-26.2 6.276,-13.251 6.276,-8.081 3.831,-3.665 0,0 m 45.372,-20.489 c -5.824,-3.234 -10.432,-4.275 -13.666,-3.718 -6.157,1.056 -8.187,7.672 -6.757,12.411 2.115,7.003 8.775,11.768 19.446,17.139 l 1.225,0.619 z m 19.693,-6.798 c -2.584,0.302 -2.995,3.463 -2.948,8.26 l 0.381,31.105 c 0.716,12.971 -1.931,20.379 -17.61,22.154 -13.244,1.5 -24.012,-3.928 -27.956,-7.458 -4.826,-4.318 -5.441,-8.272 -5.306,-10.402 0.289,-4.514 3.938,-7.236 8.342,-7.207 4.977,0.034 8.359,2.637 8.382,6.216 0.018,2.587 -1.009,3.722 -2.147,5.312 -0.905,1.269 -1.76,2.391 -1.603,4.312 0.28,3.353 5.205,6.22 12.267,6.273 6.119,0.048 9.319,-4.708 8.998,-10.799 l -0.217,-11 c 0,0 -5.918,-2.477 -19.533,-8.681 -10.557,-4.812 -15.294,-10.63 -16.054,-16.924 -1.012,-8.386 4.036,-14.823 11.277,-16.225 5.49,-1.068 10.773,0.337 16.78,3.929 1.92,1.144 7.395,4.784 7.395,4.784 l 0.016,-0.088 c 0.723,-5.412 5.183,-8.027 9.372,-8.681 3.693,-0.581 8.998,-0.126 14.241,5.264 l -1.273,1.267 c -1.009,-0.958 -1.942,-1.509 -2.804,-1.411 m 100.606,5.393 v 38.162 c 0,9.982 -5.648,17.396 -15.599,17.396 -7.452,0 -14.614,-4.212 -19.649,-11.557 l -0.867,-1.593 -0.451,1.926 c -1.599,7.056 -7.574,11.224 -15.654,11.224 -6.711,0 -12.217,-3.187 -17.858,-10.34 L 93.604,20.791 V 32.592 L 68.922,32.63 v -1.405 c 6.836,-1.198 7.886,-4.485 7.886,-10.711 l 0.245,-40.073 c 0,-5.836 -0.805,-9.375 -7.236,-10.277 V -31.42 H 99.98 v 1.6 c -5.117,0.899 -6.376,3.966 -6.376,9.689 v 36.867 l 0.335,0.55 c 3.916,6.091 7.512,8.81 11.655,8.81 2.567,0 7.407,-1.267 7.407,-8.986 v -36.992 c 0,-6.022 -0.663,-8.93 -6.424,-9.967 v -1.571 h 29.462 v 1.574 c -5.861,0.915 -6.483,3.913 -6.483,9.542 v 36.748 l 0.609,0.876 c 4.78,6.663 7.819,8.914 12.05,8.914 4.463,0 6.902,-2.854 6.902,-8.282 v -37.363 c 0,-4.673 -0.399,-9.388 -6.477,-10.422 v -1.587 h 29.738 v 1.6 c -5.789,1.021 -6.657,3.316 -6.707,7.926 m -222.841,5.343 -16.89,27.124 6.443,7.376 c 10.155,11.167 12.578,12.908 20.665,13.222 v 1.503 h -26.885 v -1.405 c 3.414,-0.107 7.433,-0.764 7.433,-5.519 0,-2.744 -2.533,-4.441 -7.031,-9.756 l -15.617,-17.629 -0.031,65.047 h -25.603 v -1.603 c 7.456,-0.406 9.052,-2.813 9.052,-10.281 v -70.917 c 0,-6.229 -1.596,-10.057 -9.052,-10.457 v -1.574 h 33.954 v 1.571 c -7.141,0.666 -8.351,3.401 -8.351,9.825 v 13.317 l 4.535,5.154 12.367,-20.593 c 0.95,-1.486 1.739,-3.35 1.739,-4.353 0,-2.07 -1.669,-3.299 -3.85,-3.299 v -1.622 h 30.587 v 1.622 c -5.014,0.518 -7.16,3.592 -13.465,13.247 m -67.205,-5.267 v 85.23 h -25.603 v -1.547 c 7.609,-0.471 9.04,-2.759 9.04,-9.827 v -72.867 c 0,-5.858 -2.395,-8.57 -9.04,-8.969 v -1.622 h 33.105 v 1.625 c -5.287,0.301 -7.502,2.74 -7.502,7.977 m -113.206,39.271 h -3.85 v 42.992 h 16.055 c 16.148,0 23.226,-6.151 25.199,-21.187 h 1.317 v 24.154 h -74.217 v -1.609 c 10.699,0.141 13.75,-2.791 13.75,-13.773 v -64.182 c 0,-9.649 -1.983,-14.002 -13.75,-13.646 v -1.955 h 45.032 v 1.945 c -6.302,-0.072 -8.693,0.666 -10.83,3.074 -1.824,2.052 -2.568,5.113 -2.568,10.573 v 30.75 h 2.319 c 13.188,0 20.344,-7.222 21.281,-21.472 h 1.304 V 37.8 h -1.285 c -0.56,-12.76 -7.898,-20.347 -19.757,-20.347 m 70.525,-20.668 c -0.069,-19.128 -4.884,-26.338 -12.283,-26.347 -8.524,-0.01 -12.217,10.113 -12.132,33.861 0.07,19.285 4.916,26.212 12.167,26.222 10.095,0.012 12.329,-11.239 12.248,-33.736 m -12.547,36.879 c -14.288,-0.016 -29.292,-9.91 -29.261,-32.668 0.032,-24.738 17.406,-33.651 29.94,-33.636 12.6,0.016 29.279,8.892 29.245,33.29 -0.031,23.132 -14.539,33.033 -29.924,33.014" style="fill:#f0f0f0;fill-opacity:1;fill-rule:nonzero;stroke:none" id="path20"></path>
        </g>
      </g>
    </g>
  </g>
</svg>
