<?xml version="1.0" encoding="UTF-8"?>
<svg width="100px" height="52px" viewBox="0 0 100 52" version="1.1" xmlns="http://www.w3.org/2000/svg" xmlns:xlink="http://www.w3.org/1999/xlink">
    <!-- Generator: Sketch 48.2 (47327) - http://www.bohemiancoding.com/sketch -->
    <title>GJ_logo</title>
    <desc>Created with Sketch.</desc>
    <defs></defs>
    <g id="Page-1" stroke="none" stroke-width="1" fill="none" fill-rule="evenodd">
        <g id="GJ_logo">
            <path d="M31.1349112,11.9366864 C30.9615385,11.7840237 30.6668639,11.0881657 30.6828402,10.6928994 C30.6976331,10.3106509 30.943787,9.86213018 31.0307692,9.7260355 C31.0573964,9.68402367 31.1923077,9.63550296 31.3680473,9.59053254 L30.8840237,1.96627219 C26.5988166,4.21775148 23.6757396,8.7112426 23.6757396,13.8887574 C23.6757396,19.6715976 27.3218935,24.6017751 32.4420118,26.5076923 L31.5289941,12.1159763 C31.3846154,12.0822485 31.2372781,12.0266272 31.1349112,11.9366864" id="Fill-1" fill="#1F395B"></path>
            <path d="M43.683432,21.0005917 L43.6680473,18.6928994 L43.6508876,18.6763314 L43.0011834,19.8739645 L43.0035503,19.8970414 L43.6704142,21.0183432 L43.683432,21.0005917 Z M41.8840237,18.7573964 L41.8662722,18.7739645 L41.9218935,20.9023669 L41.9414201,20.9177515 L42.4816568,19.9094675 L42.4792899,19.8822485 L41.8840237,18.7573964 Z M42.2674556,18.595858 L42.256213,18.6213018 L42.7195266,19.5177515 L42.7426036,19.516568 L43.2485207,18.6384615 L43.2372781,18.6177515 L42.2674556,18.595858 Z M43.1668639,21.0426036 L43.1769231,21.0201183 L42.7573964,20.2485207 L42.7414201,20.2485207 L42.3147929,20.9662722 L42.3195266,20.9846154 L43.1668639,21.0426036 Z M35.7366864,23.7757396 C35.7218935,23.7177515 35.6278107,22.8615385 35.6035503,22.6443787 C34.6029586,22.5585799 34.1213018,22.4674556 33.9952663,22.3147929 C33.856213,22.1473373 35.1497041,14.3023669 35.2443787,14.1639053 C35.3076923,14.0721893 35.6248521,13.8331361 35.6568047,13.7473373 C35.6857988,13.6733728 35.6639053,12.0532544 35.6591716,11.6514793 L35.6118343,11.6514793 C35.5508876,11.652071 33.8473373,13.316568 33.2970414,13.2597633 C32.8970414,13.2183432 32.4662722,12.983432 32.247929,12.8508876 L33.1295858,26.7420118 C34.0816568,27.0378698 35.0804734,27.2319527 36.112426,27.3094675 L36.4023669,26.8349112 L36.4118343,26.0810651 L36.0059172,23.9071006 C36.0059172,23.9071006 35.7538462,23.8402367 35.7366864,23.7757396 Z M40.5893491,13.0792899 L40.5585799,13.0792899 C40.5745562,13.435503 40.6047337,14.0455621 40.6047337,14.0455621 L40.887574,14.5473373 C40.9846154,14.7100592 41.7337278,18.2769231 41.7337278,18.2769231 L42.6745562,17.8088757 C42.5887574,17.6887574 42.5378698,17.5360947 42.5378698,17.3692308 C42.5402367,17.3 42.5497041,17.2331361 42.5668639,17.1710059 C42.5319527,17.1662722 42.3023669,17.1349112 42.2615385,17.0668639 C42.2201183,16.9976331 42.1994083,16.2568047 42.2893491,16.0786982 C42.2757396,16.0461538 42.2550296,16.0106509 42.2213018,15.9662722 C42.0881657,15.7928994 41.5449704,15.1934911 41.5532544,15.0928994 C41.5591716,14.9994083 41.6597633,14.8781065 41.6597633,14.8781065 L40.5893491,13.0792899 Z M37.1349112,0.428402367 C35.1378698,0.428402367 33.2414201,0.863905325 31.535503,1.64497041 L32.0325444,9.46449704 C32.2408284,9.43905325 32.4071006,9.43431953 32.4289941,9.46686391 C32.4940828,9.55798817 32.7408284,10.1698225 32.7674556,10.2816568 C32.7840237,10.3461538 32.7526627,10.4224852 32.7029586,10.4964497 C32.9408284,10.5650888 33.3698225,10.687574 33.3857988,10.687574 C33.3857988,10.687574 34.5934911,9.05443787 34.9414201,8.85207101 C35.035503,8.79763314 35.9946746,8.36686391 36.3964497,8.18639053 C36.4349112,8.14260355 36.4639053,8.09763314 36.4680473,8.0556213 C36.4846154,7.90414201 36.5710059,7.18579882 36.5893491,7.01005917 C36.6035503,6.88402367 36.8751479,6.64378698 36.9325444,6.45502959 C36.9881657,6.26568047 36.9745562,5.33195266 36.9940828,5.24852071 C37.0289941,5.10650888 37.8159763,4.5816568 38.0076923,4.45443787 C38.1254438,4.37514793 39.0142012,4.41183432 39.1366864,4.43491124 C39.5230769,4.50769231 39.8497041,4.8556213 39.852071,4.97810651 C39.8568047,5.10177515 39.8130178,6.36745562 39.8130178,6.36745562 C39.8130178,6.48047337 40.2508876,7.18461538 40.2508876,7.40177515 C40.2508876,7.61775148 40.2059172,8.1183432 40.2059172,8.22544379 C40.2059172,8.2556213 40.2301775,8.33076923 40.2656805,8.42189349 C40.5408284,8.5887574 41.5408284,9.19408284 41.7130178,9.30177515 C41.9142012,9.42781065 42.5473373,12.3153846 42.5473373,12.3153846 L43.3781065,13.939645 C43.3781065,13.939645 43.6183432,13.8733728 43.6775148,13.9177515 C43.735503,13.9627219 43.8059172,15.8414201 43.8059172,15.8414201 C43.8059172,15.8426036 43.8059172,15.8426036 43.8059172,15.8426036 C43.9130178,16.0556213 44.183432,16.6023669 44.183432,16.7686391 C44.183432,16.9674556 43.9840237,17.1420118 43.7609467,17.2710059 C43.7662722,17.3071006 43.7686391,17.3443787 43.7686391,17.3810651 C43.7674556,17.560355 43.7029586,17.7218935 43.6023669,17.8443787 C43.9076923,17.9934911 44.4183432,18.2502959 44.4183432,18.2857988 C44.4183432,18.4029586 44.4307692,18.5035503 44.412426,21.204142 C44.412426,21.204142 44.0775148,21.4745562 44.0508876,21.4745562 C44.0313609,21.4745562 42.9112426,21.4100592 42.2017751,21.3615385 C42.2514793,21.8869822 42.2781065,22.3159763 42.247929,22.4443787 C41.9278107,22.6011834 41.0970414,22.6869822 40.5372781,22.7272189 C40.4218935,23.1455621 40.052071,24.447929 39.956213,24.443787 C39.8414201,24.4378698 39.7284024,24.4390533 39.7284024,24.4390533 C39.7284024,24.4390533 39.0295858,25.4408284 39.0248521,25.5319527 C39.0201183,25.6248521 39.2857988,26.4810651 39.2857988,26.4810651 L39.9585799,27.052071 C46.0372781,25.7538462 50.5952663,20.3532544 50.5952663,13.8887574 C50.5952663,6.45502959 44.5698225,0.428402367 37.1349112,0.428402367 Z" id="Fill-2" fill="#224D80"></path>
            <path d="M56.4177515,30.643787 C57.1680473,30.643787 57.7686391,31.243787 57.7686391,31.995858 C57.7686391,32.7461538 57.1680473,33.3248521 56.4177515,33.3248521 C55.6668639,33.3248521 55.0863905,32.7461538 55.0863905,31.995858 C55.0863905,31.243787 55.6668639,30.643787 56.4177515,30.643787" id="Fill-3" fill="#1F395B"></path>
            <path d="M55.4088757,35.9591716 C55.4088757,35.7508876 55.5798817,35.5775148 55.7893491,35.5775148 L57.0674556,35.5775148 C57.2763314,35.5775148 57.4473373,35.7508876 57.4473373,35.9591716 L57.4473373,45.6633136 L55.7893491,45.6633136 C55.5798817,45.6633136 55.4088757,45.4923077 55.4088757,45.2828402 L55.4088757,35.9591716" id="Fill-4" fill="#1F395B"></path>
            <path d="M74.1982249,30.643787 C74.9497041,30.643787 75.5502959,31.243787 75.5502959,31.995858 C75.5502959,32.7461538 74.9497041,33.3248521 74.1982249,33.3248521 C73.4467456,33.3248521 72.8680473,32.7461538 72.8680473,31.995858 C72.8680473,31.243787 73.4467456,30.643787 74.1982249,30.643787" id="Fill-5" fill="#1F395B"></path>
            <path d="M73.1893491,35.9591716 C73.1893491,35.7508876 73.360355,35.5775148 73.5698225,35.5775148 L74.847929,35.5775148 C75.0568047,35.5775148 75.2278107,35.7508876 75.2278107,35.9591716 L75.2278107,45.6633136 L73.5698225,45.6633136 C73.360355,45.6633136 73.1893491,45.4923077 73.1893491,45.2828402 L73.1893491,35.9591716" id="Fill-6" fill="#1F395B"></path>
            <path d="M67.9934911,42.508284 C67.3059172,43.4319527 66.2538462,43.9473373 65.2254438,43.9473373 C63.2721893,43.9473373 61.8775148,42.4224852 61.8775148,40.6207101 C61.8775148,38.8609467 63.1650888,37.2946746 65.1177515,37.2946746 C66.339645,37.2946746 67.3704142,37.916568 67.9934911,38.7313609 L67.9934911,42.508284 Z M69.6502959,30.4289941 L68.3733728,30.4289941 C68.1633136,30.4289941 67.9934911,30.5988166 67.9934911,30.8088757 L67.9934911,36.4579882 C67.091716,35.7071006 65.9976331,35.3639053 64.9017751,35.3639053 C63.9585799,35.3639053 63.1218935,35.5994083 62.4343195,36.0076923 C60.9112426,36.9088757 59.839645,38.6029586 59.839645,40.6207101 C59.839645,42.6378698 60.8905325,44.3112426 62.4136095,45.212426 C63.1,45.6195266 64.0455621,45.8781065 64.9467456,45.8781065 C66.147929,45.8781065 67.2408284,45.4704142 68.0568047,44.7408284 L68.0568047,45.2840237 C68.0568047,45.4923077 68.2278107,45.6633136 68.4372781,45.6633136 L70.0307692,45.6633136 L70.0307692,30.8088757 C70.0307692,30.5988166 69.8597633,30.4289941 69.6502959,30.4289941 Z" id="Fill-7" fill="#1F395B"></path>
            <path d="M85.7727811,42.508284 C85.0857988,43.4319527 84.035503,43.9473373 83.0047337,43.9473373 C81.0526627,43.9473373 79.6591716,42.4224852 79.6591716,40.6207101 C79.6591716,38.8609467 80.943787,37.2946746 82.8982249,37.2946746 C84.1213018,37.2946746 85.1508876,37.916568 85.7727811,38.7313609 L85.7727811,42.508284 Z M87.4319527,35.5775148 L86.2183432,35.5775148 C86.008284,35.5775148 85.8372781,35.7485207 85.8372781,35.9591716 L85.8372781,36.5011834 C84.9147929,35.7071006 83.8207101,35.3639053 82.683432,35.3639053 C81.7390533,35.3639053 80.9023669,35.5994083 80.2147929,36.0076923 C78.6928994,36.9088757 77.6189349,38.6029586 77.6189349,40.6207101 C77.6189349,42.6378698 78.6710059,44.3112426 80.1940828,45.212426 C80.8804734,45.6195266 81.8248521,45.8781065 82.7248521,45.8781065 C83.9266272,45.8781065 84.9579882,45.4911243 85.7727811,44.7840237 L85.7727811,45.3408284 C85.7727811,46.6076923 85.5792899,47.3792899 85.2153846,47.9378698 C84.7207101,48.687574 83.8633136,49.0982249 82.7686391,49.0982249 C81.2639053,49.0982249 80.3491124,48.4011834 79.6473373,47.5467456 C79.6473373,47.5467456 79.643787,47.5414201 79.6390533,47.5390533 C79.4970414,47.4266272 79.3005917,47.4372781 79.1656805,47.5514793 C79.1502959,47.5656805 79.1272189,47.5887574 79.1272189,47.5887574 L77.9402367,48.687574 C78.5852071,49.6964497 80.2366864,51.0278107 82.8556213,51.0278107 C84.8502959,51.0278107 86.3952663,50.1047337 87.2100592,48.5372781 C87.6183432,47.7443787 87.8112426,46.735503 87.8112426,45.2343195 L87.8112426,35.9591716 C87.8112426,35.7485207 87.6402367,35.5775148 87.4319527,35.5775148 Z" id="Fill-8" fill="#1F395B"></path>
            <path d="M23.3994083,39.3337278 C23.7431953,38.0254438 24.9242604,37.1443787 26.2325444,37.1443787 C27.4343195,37.1443787 28.5934911,38.0461538 28.8940828,39.3337278 L23.3994083,39.3337278 Z M31.0177515,40.6207101 C31.0177515,37.6378698 28.9792899,35.3639053 26.1686391,35.3639053 C23.3142012,35.3639053 21.2544379,37.5952663 21.2544379,40.6207101 C21.2544379,43.6455621 23.5301775,45.8781065 26.4692308,45.8781065 C28.5284024,45.8781065 29.9662722,44.956213 30.7177515,43.9887574 C30.7177515,43.9887574 29.608284,42.9337278 29.6047337,42.9313609 C29.4786982,42.8467456 29.3213018,42.8639053 29.1988166,42.9384615 C29.1550296,42.9656805 29.0775148,43.0431953 29.0775148,43.0431953 C28.5171598,43.5923077 27.7568047,44.0976331 26.4899408,44.0976331 C24.7307692,44.0976331 23.3360947,42.743787 23.2284024,41.0497041 L30.6171598,41.0497041 C30.8224852,41.0497041 31.0017751,40.8982249 31.0153846,40.7112426 C31.0153846,40.7112426 31.0177515,40.6431953 31.0177515,40.6207101 Z" id="Fill-9" fill="#1F395B"></path>
            <path d="M92.3112426,39.3337278 C92.6544379,38.0254438 93.8349112,37.1443787 95.143787,37.1443787 C96.3461538,37.1443787 97.504142,38.0461538 97.8047337,39.3337278 L92.3112426,39.3337278 Z M99.9295858,40.6207101 C99.9295858,37.6378698 97.8911243,35.3639053 95.0804734,35.3639053 C92.2260355,35.3639053 90.1650888,37.5952663 90.1650888,40.6207101 C90.1650888,43.6455621 92.439645,45.8781065 95.3810651,45.8781065 C97.4402367,45.8781065 98.8781065,44.956213 99.6284024,43.9887574 C99.6284024,43.9887574 98.5201183,42.9337278 98.516568,42.9313609 C98.3905325,42.8467456 98.2331361,42.8639053 98.1106509,42.9384615 C98.0668639,42.9656805 97.9893491,43.0431953 97.9893491,43.0431953 C97.4301775,43.5923077 96.6686391,44.0976331 95.4017751,44.0976331 C93.6426036,44.0976331 92.2467456,42.743787 92.1402367,41.0497041 L99.5278107,41.0497041 C99.7343195,41.0497041 99.9136095,40.8982249 99.9284024,40.7112426 C99.9284024,40.7112426 99.9295858,40.7088757 99.9295858,40.7076923 L99.9284024,40.7088757 C99.9284024,40.6786982 99.9295858,40.6431953 99.9295858,40.6207101 Z" id="Fill-10" fill="#1F395B"></path>
            <path d="M17.8337278,30.643787 C18.5840237,30.643787 19.1846154,31.243787 19.1846154,31.995858 C19.1846154,32.7461538 18.5840237,33.3248521 17.8337278,33.3248521 C17.0828402,33.3248521 16.5035503,32.7461538 16.5035503,31.995858 C16.5035503,31.243787 17.0828402,30.643787 17.8337278,30.643787" id="Fill-11" fill="#1F395B"></path>
            <path d="M18.8621302,46.5218935 C18.8621302,47.8727811 18.6704142,48.7106509 18.2201183,49.3544379 C17.4905325,50.4065089 16.287574,51.0278107 14.9159763,51.0278107 C14.4857988,51.0278107 13.9923077,50.9633136 13.7136095,50.8763314 L14.0579882,49.3810651 C14.104142,49.1763314 14.3112426,49.0402367 14.5183432,49.0781065 L14.8934911,49.0982249 C15.4727811,49.0982249 16.095858,48.8390533 16.4390533,48.3881657 C16.7171598,48.0242604 16.8248521,47.5088757 16.8248521,46.5869822 L16.8248521,35.9591716 C16.8248521,35.7508876 16.995858,35.5775148 17.2053254,35.5775148 L18.483432,35.5775148 C18.6923077,35.5775148 18.8621302,35.7508876 18.8621302,35.9591716 L18.8621302,46.5218935" id="Fill-12" fill="#1F395B"></path>
            <path d="M42.1414201,37.1443787 C41.2816568,36.0514793 39.9526627,35.3639053 38.4710059,35.3639053 C37.0136095,35.3639053 35.9828402,36.0284024 35.4455621,36.5449704 L35.4455621,35.9591716 C35.4455621,35.7508876 35.2745562,35.5775148 35.0662722,35.5775148 L33.8526627,35.5775148 C33.643787,35.5775148 33.4715976,35.7508876 33.4715976,35.9591716 L33.4715976,45.2828402 C33.4715976,45.4923077 33.643787,45.6633136 33.8526627,45.6633136 L35.1301775,45.6633136 C35.3390533,45.6633136 35.5112426,45.4923077 35.5112426,45.2828402 L35.5112426,38.7313609 C36.1112426,38.0035503 37.0775148,37.2946746 38.4076923,37.2946746 C39.2431953,37.2946746 40.0159763,37.6810651 40.487574,38.2816568 C40.8544379,38.7313609 41.0899408,39.3337278 41.0899408,40.6207101 L41.1011834,41 L41.1011834,45.2828402 C41.1011834,45.4923077 41.2727811,45.6633136 41.4816568,45.6633136 L43.1272189,45.6633136 L43.1272189,40.7284024 C43.1272189,38.9905325 42.7840237,37.9591716 42.1414201,37.1443787" id="Fill-13" fill="#1F395B"></path>
            <path d="M51.2573964,37.7319527 C51.2585799,37.7319527 51.2633136,37.7319527 51.2656805,37.7343195 C51.2633136,37.7343195 51.2621302,37.7319527 51.2597633,37.7307692 L51.2573964,37.7319527" id="Fill-14" fill="#1F395B"></path>
            <path d="M46.0698225,43.2650888 L46.0745562,43.2650888 L46.0798817,43.2573964 C46.0769231,43.260355 46.0733728,43.2627219 46.0698225,43.2650888" id="Fill-15" fill="#1F395B"></path>
            <path d="M45.2224852,44.483432 C46.3378698,45.3846154 47.6887574,45.8781065 49.2988166,45.8781065 C51.2739645,45.8781065 53.0550296,44.6982249 53.0550296,42.7881657 C53.0550296,40.7065089 50.9721893,39.9982249 49.3840237,39.5899408 C48.3763314,39.3337278 47.5816568,39.0964497 47.5816568,38.4100592 C47.5816568,37.6171598 48.4195266,37.1443787 49.4065089,37.1443787 C50.0893491,37.1443787 50.7088757,37.3792899 51.2597633,37.7307692 C51.2621302,37.7319527 51.2633136,37.7343195 51.2656805,37.7343195 C51.4461538,37.8343195 51.6863905,37.7816568 51.8065089,37.6147929 L52.343787,36.8710059 L52.3739645,36.8278107 C52.5230769,36.6272189 52.5059172,36.439645 52.3591716,36.2905325 L52.3130178,36.2467456 C51.5556213,35.7254438 50.5721893,35.3639053 49.2769231,35.3639053 C47.4751479,35.3639053 45.5426036,36.3508876 45.5426036,38.5189349 C45.5426036,39.9343195 46.6384615,40.7065089 47.8609467,41.1142012 C49.3414201,41.6076923 51.0147929,41.6727811 51.0147929,42.8307692 C51.0147929,43.6248521 50.135503,44.0976331 49.256213,44.0976331 C48.3639053,44.0976331 47.4544379,43.7934911 46.6035503,43.2189349 L46.595858,43.2130178 C46.439645,43.0881657 46.2142012,43.108284 46.0798817,43.2573964 L45.2224852,44.483432" id="Fill-16" fill="#1F395B"></path>
            <path d="M13.7568047,36.9236686 C13.7568047,36.7136095 13.5863905,36.5426036 13.3763314,36.5426036 L7.3183432,36.5449704 L7.3183432,38.2295858 C7.33550296,38.4248521 7.49408284,38.5798817 7.69289941,38.5798817 L11.6106509,38.5822485 L11.6106509,42.4443787 C10.816568,43.2384615 9.50710059,43.8408284 7.91893491,43.8408284 C4.72366864,43.8408284 2.27573964,41.5431953 2.27573964,38.1526627 C2.27573964,34.9118343 4.65798817,32.4674556 7.72721893,32.4674556 C9.18816568,32.4674556 10.6071006,33.0710059 11.5153846,33.9029586 L11.5142012,33.9029586 C11.5153846,33.9053254 11.5177515,33.9053254 11.5189349,33.9076923 C11.660355,34.043787 11.8810651,34.0461538 12.0289941,33.9189349 C12.0366864,33.9136095 12.0449704,33.9112426 12.052071,33.9029586 L12.043787,33.9029586 L12.9508876,33.0106509 L12.9508876,33.0153846 C12.9532544,33.0106509 12.9556213,33.0071006 12.9591716,33.0029586 C13.0816568,32.8710059 13.087574,32.6781065 12.9869822,32.5331361 C12.9763314,32.5183432 12.9686391,32.5047337 12.9579882,32.4893491 L12.9579882,32.4881657 C12.9556213,32.4846154 12.9532544,32.4816568 12.9508876,32.4781065 L12.9508876,32.4828402 C11.6402367,31.2053254 9.73491124,30.4289941 7.72721893,30.4289941 C3.39230769,30.4289941 0.130769231,33.8183432 0.130769231,38.1526627 C0.130769231,42.5946746 3.43491124,45.8781065 7.91893491,45.8781065 C10.2372781,45.8781065 12.4680473,44.7189349 13.7568047,43.0881657 L13.7568047,36.9236686" id="Fill-17" fill="#1F395B"></path>
        </g>
    </g>
</svg>