<?xml version="1.0" encoding="UTF-8" standalone="no"?>
<svg
   xmlns:dc="http://purl.org/dc/elements/1.1/"
   xmlns:cc="http://creativecommons.org/ns#"
   xmlns:rdf="http://www.w3.org/1999/02/22-rdf-syntax-ns#"
   xmlns:svg="http://www.w3.org/2000/svg"
   xmlns="http://www.w3.org/2000/svg"
   xmlns:sodipodi="http://sodipodi.sourceforge.net/DTD/sodipodi-0.dtd"
   xmlns:inkscape="http://www.inkscape.org/namespaces/inkscape"
   version="1.1"
   id="svg2"
   xml:space="preserve"
   width="604"
   height="480.49734"
   viewBox="0 0 604 480.49734"
   sodipodi:docname="GJ_BG.ai"><metadata
     id="metadata8"><rdf:RDF><cc:Work
         rdf:about=""><dc:format>image/svg+xml</dc:format><dc:type
           rdf:resource="http://purl.org/dc/dcmitype/StillImage" /></cc:Work></rdf:RDF></metadata><defs
     id="defs6"><clipPath
       clipPathUnits="userSpaceOnUse"
       id="clipPath18"><path
         d="M 0,360.373 H 453 V 0 H 0 Z"
         id="path16" /></clipPath></defs><sodipodi:namedview
     pagecolor="#ffffff"
     bordercolor="#666666"
     borderopacity="1"
     objecttolerance="10"
     gridtolerance="10"
     guidetolerance="10"
     inkscape:pageopacity="0"
     inkscape:pageshadow="2"
     inkscape:window-width="640"
     inkscape:window-height="480"
     id="namedview4" /><g
     id="g10"
     inkscape:groupmode="layer"
     inkscape:label="GJ_BG"
     transform="matrix(1.3333333,0,0,-1.3333333,0,480.49733)"><g
       id="g12"><g
         id="g14"
         clip-path="url(#clipPath18)"><g
           id="g20"
           transform="translate(228.1123,348.0958)"><path
             d="m 0,0 c -24.08,-0.007 -47.875,-5.207 -69.763,-15.245 l 5.999,-97.488 c 2.771,0.462 4.619,0.462 5.088,0 0.924,-0.924 3.696,-8.778 4.157,-10.163 0.126,-1.017 -0.213,-2.035 -0.923,-2.772 2.772,-0.924 8.315,-2.31 8.315,-2.31 0,0 15.245,20.333 19.403,23.098 0.924,0.463 12.935,6.006 18.016,8.316 0.571,0.445 0.911,1.124 0.924,1.848 0,1.847 1.386,10.625 1.386,12.935 0,1.385 3.696,4.619 4.158,6.929 0.462,2.31 0.462,13.859 0.924,15.245 0.462,1.848 10.164,8.315 12.473,9.702 1.386,0.924 12.48,0.462 13.859,0 4.62,-0.925 8.777,-5.082 8.777,-6.93 0,-1.386 -0.462,-17.093 -0.462,-17.093 0,-1.386 5.544,-10.163 5.544,-12.935 0,-2.772 -0.462,-8.777 -0.462,-10.163 0.183,-0.815 0.494,-1.595 0.924,-2.31 3.233,-1.848 15.707,-9.702 18.017,-11.094 2.31,-1.392 10.625,-37.419 10.625,-37.419 l 10.164,-20.327 c 0,0 2.771,0.924 3.695,0.462 0.924,-0.462 1.386,-24.029 1.386,-24.029 1.385,-2.772 4.62,-9.239 4.62,-11.549 0,-2.31 -2.31,-4.619 -5.082,-6.468 v -1.386 c 0,-2.309 -0.924,-4.157 -1.848,-6.005 3.695,-1.848 10.17,-5.081 10.17,-5.543 v -36.502 c 0,0 -4.164,-3.235 -4.62,-3.235 -0.455,0 -14.32,0.924 -23.098,1.386 0.462,-6.467 0.924,-12.011 0.462,-13.396 -4.158,-1.848 -14.321,-3.234 -21.251,-3.697 -1.386,-5.081 -6.005,-21.25 -7.391,-21.25 h -2.772 c 0,0 -8.777,-12.473 -8.777,-13.859 0,-1.386 3.233,-12.011 3.233,-12.011 l 8.316,-6.936 c 75.769,16.175 132.598,83.63 132.598,164.018 C 167.715,-75.307 92.407,0 0,0 m -17.568,-291.039 c 0,0.924 -1.386,11.549 -1.848,14.32 -12.473,0.924 -18.478,2.311 -19.864,4.158 -1.848,2.31 14.321,99.798 15.707,101.633 0.924,0.924 4.619,4.158 5.081,5.082 0.462,0.924 0,21.25 0,26.332 h -0.462 c -0.923,0 -22.174,-20.789 -29.104,-19.864 -5.081,0.461 -10.163,3.233 -12.941,5.081 l 11.094,-173.265 c 12.168,-3.73 24.722,-6.057 37.419,-6.935 l 3.696,6.012 v 9.239 l -5.082,27.256 c -0.449,-0.924 -3.22,0.001 -3.696,0.951 m 60.538,133.515 v 0 -12.011 l 3.696,-6.468 c 1.386,-1.848 10.625,-46.665 10.625,-46.665 l 11.549,6.006 c -1.159,1.619 -1.804,3.552 -1.848,5.543 0,0.924 0,1.848 0.462,2.309 -0.462,0 -3.233,0.463 -3.695,1.387 -0.462,0.924 -0.924,10.163 0.462,12.473 0,0.462 -0.462,0.924 -0.924,1.386 -1.849,2.31 -8.316,9.701 -8.316,11.093 0,0.924 1.386,2.773 1.386,2.773 z m 38.805,-97.482 v 27.256 l -8.315,-14.783 v -0.462 z m -22.636,26.332 v 0 l 0.462,-25.408 6.929,11.549 v 0.462 z m 4.62,2.31 v 0 l 6.005,-11.087 h 0.462 l 5.544,10.625 v 0.462 z m 11.549,-30.054 v 0 l -5.544,8.784 -4.619,-7.853 z"
             style="fill:#f0f0f0;fill-opacity:1;fill-rule:nonzero;stroke:none"
             id="path22" /></g><g
           id="g24"
           transform="translate(150.0337,204.4107)"><path
             d="m 0,0 c -2.31,1.848 -6.006,10.625 -5.544,15.707 0,4.62 3.234,10.163 4.158,12.011 0.818,0.65 1.761,1.121 2.772,1.386 L -4.62,123.359 C -56.829,94.71 -91.938,39.736 -91.938,-24.022 c 0,-71.149 44.355,-131.674 106.721,-156.158 L 3.233,-1.386 C 2.31,-0.924 0.924,-0.462 0,0"
             style="fill:#e0e0e0;fill-opacity:1;fill-rule:nonzero;stroke:none"
             id="path26" /></g></g></g></g></svg>
