<?xml version="1.0" encoding="UTF-8" standalone="no"?>
<!-- Created with Inkscape (http://www.inkscape.org/) -->

<svg
   version="1.1"
   id="svg2"
   xml:space="preserve"
   width="805.33331"
   height="640.66266"
   viewBox="0 0 805.33331 640.66266"
   sodipodi:docname="ifbg.ai"
   xmlns:inkscape="http://www.inkscape.org/namespaces/inkscape"
   xmlns:sodipodi="http://sodipodi.sourceforge.net/DTD/sodipodi-0.dtd"
   xmlns="http://www.w3.org/2000/svg"
   xmlns:svg="http://www.w3.org/2000/svg"><defs
     id="defs6"><clipPath
       clipPathUnits="userSpaceOnUse"
       id="clipPath16"><path
         d="M 77.246,18.638 H 526.754 V 461.86 H 77.246 Z"
         id="path14" /></clipPath></defs><sodipodi:namedview
     id="namedview4"
     pagecolor="#ffffff"
     bordercolor="#666666"
     borderopacity="1.0"
     inkscape:pageshadow="2"
     inkscape:pageopacity="0.0"
     inkscape:pagecheckerboard="0" /><g
     id="g8"
     inkscape:groupmode="layer"
     inkscape:label="ifbg"
     transform="matrix(1.3333333,0,0,-1.3333333,0,640.66267)"><g
       id="g10"><g
         id="g12"
         clip-path="url(#clipPath16)"><g
           id="g18"
           transform="translate(526.7539,240.2745)"><path
             d="m 0,0 c 0,-122.368 -100.732,-221.637 -224.918,-221.637 -124.035,0 -224.59,99.269 -224.59,221.637 0,122.394 100.555,221.585 224.59,221.585 C -100.732,221.585 0,122.394 0,0"
             style="fill:#f0f0f0;fill-opacity:1;fill-rule:nonzero;stroke:none"
             id="path20" /></g><g
           id="g22"
           transform="translate(380.4775,399.6783)"><path
             d="m 0,0 c -18.834,0 -36.707,-8.053 -49.659,-21.03 -18.782,-19.137 -27.342,-47.387 -33.073,-66.802 l -19.06,0.329 c -1.364,0 -2.475,-1.162 -2.777,-2.07 l -2.853,-9.947 c -0.303,-0.934 0.302,-2.272 1.716,-2.272 l 19.036,0.303 c 0,0 -25.625,-103.283 -30.825,-124.186 -6.514,-26.282 -17.067,-53.042 -24.514,-62.384 -6.691,-8.583 -11.159,-11.26 -15.78,-11.26 -6.336,0 -9.644,4.696 -11.461,12.27 -1.237,5.454 -4.771,13.003 -12.573,13.003 -8.23,0 -19.465,-9.291 -19.465,-20.577 0,-15.198 25.373,-18.581 33.83,-18.581 16.638,0 38.198,10.603 52.715,27.342 18.479,20.827 28.729,47.159 38.398,84.221 l 23.379,100.203 24.539,-0.379 c 1.944,0 2.878,1.464 3.257,2.423 l 3.206,9.215 c 0.278,1.086 -0.202,2.347 -1.793,2.347 h -25.347 c 6.035,21.258 15.148,52.715 32.391,70.059 1.541,1.565 5.832,5.201 9.771,5.276 6.942,0 8.861,-3.836 11.764,-10.25 2.777,-6.336 2.298,-17.116 11.816,-17.116 10.956,0 19.312,12.345 19.312,20.727 C 35.95,-7.498 15.955,0 0,0"
             style="fill:#ffffff;fill-opacity:1;fill-rule:nonzero;stroke:none"
             id="path24" /></g><g
           id="g26"
           transform="translate(356.2412,212.5284)"><path
             d="m 0,0 c -10.477,-0.303 -18.101,-8.987 -18.506,-19.793 -0.478,-10.451 5.985,-16.461 15.173,-16.461 15.653,0 18.558,14.265 18.758,19.264 C 15.956,-4.721 7.499,0 0,0"
             style="fill:#ffffff;fill-opacity:1;fill-rule:nonzero;stroke:none"
             id="path28" /></g><g
           id="g30"
           transform="translate(410.9756,212.5284)"><path
             d="m 0,0 c -10.478,-0.303 -18.103,-8.987 -18.557,-19.793 -0.454,-10.451 6.009,-16.461 15.224,-16.461 15.729,0 18.556,14.265 18.708,19.264 C 15.98,-4.721 7.497,0 0,0"
             style="fill:#ffffff;fill-opacity:1;fill-rule:nonzero;stroke:none"
             id="path32" /></g><g
           id="g34"
           transform="translate(465.709,212.5284)"><path
             d="m 0,0 c -10.477,-0.303 -18.152,-8.987 -18.556,-19.793 -0.429,-10.451 5.958,-16.461 15.223,-16.461 15.754,0 18.531,14.265 18.759,19.264 C 15.956,-4.721 7.447,0 0,0"
             style="fill:#ffffff;fill-opacity:1;fill-rule:nonzero;stroke:none"
             id="path36" /></g><g
           id="g38"
           transform="translate(245.6382,381.2486)"><path
             d="m 0,0 c -11.16,-0.328 -19.465,-9.619 -20.122,-21.029 -0.656,-11.21 6.085,-17.622 15.981,-17.622 16.613,0 19.894,15.198 20.298,20.55 C 16.914,-5.074 7.978,0 0,0"
             style="fill:#ffffff;fill-opacity:1;fill-rule:nonzero;stroke:none"
             id="path40" /></g><g
           id="g42"
           transform="translate(237.3062,220.1524)"><path
             d="m 0,0 c -0.808,0.732 -2.221,1.061 -3.383,-0.126 0,0 -17.066,-19.061 -22.847,-19.061 -2.651,0 -2.551,3.182 -2.551,3.762 0,2.827 1.743,7.876 2.576,10.351 l 7.271,19.161 17.546,42.465 c 3.636,8.508 7.978,19.516 7.978,26.786 0,9.467 -7.094,11.715 -12.245,11.715 -23.58,0 -48.978,-27.645 -58.622,-38.703 -0.1,0 -0.126,-0.076 -0.126,-0.076 -0.631,-0.732 -1.186,-2.221 0.303,-3.609 l 4.444,-4.292 c 0.807,-0.784 2.347,-0.784 3.281,0.176 0,0 11.588,12.826 15.855,15.829 1.136,0.935 2.878,2.07 3.99,2.07 1.513,0 2.271,-2.196 2.271,-3.433 0,-3.938 -3.989,-13.355 -5.806,-18.253 L -58.268,-1.389 c -6.311,-15.501 -9.265,-23.73 -9.265,-30.698 0,-7.851 4.393,-14.112 15.274,-14.112 25.221,0 57.081,38.196 57.081,38.196 1.262,1.389 0.657,2.803 -0.126,3.484 z"
             style="fill:#ffffff;fill-opacity:1;fill-rule:nonzero;stroke:none"
             id="path44" /></g></g></g></g></svg>
