<svg width="817" height="184" viewBox="0 0 817 184" fill="none" xmlns="http://www.w3.org/2000/svg">
<path d="M65.8008 0V51.1759H132.818V184H184V0H65.8008Z" fill="#005AA0"/>
<path d="M0 0V184H118.199V132.818H51.1759V0H0Z" fill="#005AA0"/>
<path d="M118.2 65.7993H65.8013V118.198H118.2V65.7993Z" fill="#E30613"/>
<path d="M265.064 126.926H258.14V61.4527C258.14 55.8906 258.379 55.535 267.02 53.2846V51.1509H231.975V53.2846C240.498 55.535 240.854 56.0073 240.854 61.4527V122.547C240.854 128.115 240.615 128.47 231.975 130.715V132.849H292.413L293.836 106.8H291.708C283.539 127.404 276.788 126.926 265.069 126.926H265.064Z" fill="#005AA0"/>
<path d="M300.514 51.2676V53.7514C309.143 55.9962 309.382 56.3518 309.382 61.9084V122.558C309.382 128.115 309.149 128.47 300.514 130.715V132.843H335.509V130.715C326.997 128.47 326.641 127.998 326.641 122.558V96.0757H332.787C340.944 95.959 344.255 96.7869 347.328 108.728H350.045C349.929 102.932 349.812 98.2038 349.812 92.6473C349.812 86.5017 349.929 82.7177 350.045 77.1611H347.328C344.255 88.9855 341.299 90.1691 332.787 90.1691H326.641V57.1853H335.387C350.284 57.1853 352.057 59.5524 360.214 74.9163H362.342L360.686 51.1509L300.509 51.2676H300.514Z" fill="#005AA0"/>
<path d="M786.264 122.542V47.5947H760.804V49.7284C769.45 51.9789 769.683 52.3345 769.683 57.8966V75.2997C764.354 72.4603 757.842 71.2712 752.869 71.2712C739.728 71.3879 730.254 80.2673 730.254 100.043C730.254 123.014 735.405 134.027 753.991 134.027C759.32 134.027 765.36 132.132 772.345 129.171V132.843H795.432V130.71C786.792 128.459 786.258 128.104 786.258 122.542H786.264ZM757.903 125.976C750.207 125.976 748.018 121.119 748.018 104.188C748.018 80.6285 748.963 79.5616 759.62 79.5616C761.515 79.5616 766.371 79.5616 769.683 80.1562L769.978 124.914C765.004 125.859 760.976 125.981 757.903 125.981V125.976Z" fill="#005AA0"/>
<path d="M720.524 122.543V86.7869C720.524 74.1179 711.406 71.2729 703.71 71.2729C696.725 71.2729 686.657 74.468 681.334 79.2077V72.4565H661.186V74.8847C666.937 76.4461 667.12 77.0684 667.12 81.9082V122.399C667.12 125.661 666.964 127.011 665.075 128.428C662.936 130.028 661.18 130.384 659.758 130.384C657.496 130.384 655.073 129.133 653.951 127.855C652.717 126.45 652.728 123.666 652.728 122.188V89.3873C652.728 77.5463 645.977 71.2729 634.258 71.2729C618.745 71.2729 604.892 75.7738 604.892 87.3759C604.892 92.4657 607.142 95.3106 613.06 95.3106C618.978 95.3106 621.351 91.76 621.351 87.0202C621.351 82.2805 619.695 81.1025 613.655 80.1523V79.7967C613.655 79.7967 619.928 79.4411 624.312 79.4411C635.325 79.4411 636.153 79.9134 636.153 91.7544V100.873H621.828C608.332 100.873 603.358 105.251 603.358 117.687C603.358 130.122 607.976 134.029 618.989 134.029C626.096 134.029 633.197 131.662 636.987 129.295C638.643 132.845 642.671 134.029 648.472 134.029C652.262 134.029 656.446 132.845 661.258 132.845H692.58V130.717C684.056 128.467 683.701 127.994 683.701 122.549V80.9914C688.202 80.6358 692.58 80.2801 696.964 80.2801C703.238 80.2801 703.949 81.7026 703.949 87.6204V122.549C703.949 128.117 703.71 128.472 695.069 130.717V132.851H729.409V130.717C720.885 128.467 720.53 127.994 720.53 122.549L720.524 122.543ZM636.159 125.861C633.908 126.572 631.302 126.927 628.935 126.927C622.662 126.927 620.645 125.505 620.645 117.454C620.645 106.563 621.239 105.729 636.159 105.613V125.861Z" fill="#005AA0"/>
<path d="M442.334 53.2734C450.858 55.5238 451.213 55.9961 451.213 61.4415V87.7296H417.768V61.4415C417.768 55.8794 418.007 55.5238 426.648 53.2734V51.1396H391.603V53.2734C400.126 55.5238 400.482 55.9961 400.482 61.4415V122.541C400.482 128.109 400.243 128.465 391.603 130.71V132.843H426.648V130.71C418.124 128.459 417.768 127.987 417.768 122.541V93.6529H451.213V122.541C451.213 128.109 450.974 128.465 442.334 130.71V132.843H477.024V130.71C469.339 128.832 468.5 127.987 468.5 122.541V61.4415C468.5 55.8794 468.739 55.5238 477.379 53.2734V51.1396H442.334V53.2734Z" fill="#005AA0"/>
<path d="M591.584 122.543V47.5908H566.124V49.7245C574.77 51.9749 575.003 52.3306 575.003 57.8927V122.543C575.003 124.899 575.076 126.922 573.681 128.239C571.775 130.034 569.291 130.523 567.602 130.523H567.591C565.896 130.523 563.418 130.034 561.512 128.239C560.117 126.927 560.19 124.899 560.19 122.543V47.5964H534.729V49.7301C543.375 51.9805 543.609 52.3361 543.609 57.8982V122.549C543.609 124.721 543.837 127.116 542.264 128.433C540.214 130.15 537.858 130.389 536.802 130.389C534.541 130.389 532.196 129.511 530.845 127.861C529.662 126.411 529.623 123.355 529.623 122.193V89.3928C529.623 77.5518 522.877 71.2784 511.153 71.2784C495.639 71.2784 481.787 75.7793 481.787 87.3814C481.787 92.4712 484.037 95.3161 489.955 95.3161C495.872 95.3161 498.245 91.7655 498.245 87.0257C498.245 82.286 496.589 81.108 490.549 80.1578V79.8022C490.549 79.8022 496.823 79.4466 501.207 79.4466C512.22 79.4466 513.048 79.9189 513.048 91.7599V100.878H498.723C485.226 100.878 480.253 105.262 480.253 117.692C480.253 130.122 484.87 134.034 495.884 134.034C502.99 134.034 510.092 131.667 513.881 129.3C515.537 132.851 519.566 134.034 525.367 134.034C529.156 134.034 533.34 132.851 538.152 132.851H569.075H600.469V130.717C591.945 128.467 591.59 127.994 591.59 122.549L591.584 122.543ZM513.048 125.861C510.797 126.572 508.191 126.927 505.824 126.927C499.551 126.927 497.534 125.505 497.534 117.453C497.534 106.563 498.128 105.729 513.048 105.612V125.861Z" fill="#005AA0"/>
</svg>
