<svg width="940" height="184" viewBox="0 0 940 184" fill="none" xmlns="http://www.w3.org/2000/svg">
<path d="M65.8013 0V51.1777H132.822V184H184V0H65.8013Z" fill="#005AA0"/>
<path d="M0 0V184H118.199V132.822H51.1777V0H0Z" fill="#005AA0"/>
<path d="M118.198 65.803H65.8013V118.2H118.198V65.803Z" fill="#E30613"/>
<path d="M391.606 53.2788C400.132 55.5286 400.486 56.0015 400.486 61.4469V117.574C400.486 128.941 400.132 129.768 388.173 129.768H386.751V133.559C391.014 134.032 395.156 134.032 398.591 134.032C410.077 134.032 417.772 130.241 417.772 118.638V61.4469C417.772 55.8833 418.008 55.5286 426.653 53.2788V51.1472H391.606V53.2788Z" fill="#005AA0"/>
<path d="M445.095 49.9644H449.122C451.932 49.9644 454.212 52.2445 454.212 55.0551V59.2C454.212 62.0105 451.932 64.2907 449.122 64.2907H445.095C442.284 64.2907 440.004 62.0105 440.004 59.2V55.0551C440.004 52.2445 442.284 49.9644 445.095 49.9644Z" fill="#005AA0"/>
<path d="M459.238 71.2798C437.925 71.2798 429.281 75.4247 429.281 103.25C429.281 131.075 438.044 134.034 459.238 134.034C480.432 134.034 487.536 130.957 487.536 103.25C487.536 75.5429 481.259 71.2798 459.238 71.2798ZM459.238 128.943C448.225 128.943 447.043 127.998 447.043 103.25C447.043 78.5021 447.634 76.3739 459.238 76.3739C469.301 76.3739 469.774 79.0966 469.774 103.25C469.774 127.403 468.71 128.943 459.238 128.943Z" fill="#005AA0"/>
<path d="M467.709 49.9644H471.736C474.547 49.9644 476.827 52.2445 476.827 55.0551V59.2C476.827 62.0105 474.547 64.2907 471.736 64.2907H467.709C464.899 64.2907 462.619 62.0105 462.619 59.2V55.0551C462.619 52.2445 464.899 49.9644 467.709 49.9644Z" fill="#005AA0"/>
<path d="M620.375 126.1L598.367 94.0113C598.367 94.0113 608.059 82.5259 611.613 79.212C613.981 76.9622 615.859 75.1685 621.679 74.5942V72.4626H599.654V74.5942C604.39 74.7124 606.522 75.1854 606.522 76.4893C606.522 77.0805 605.454 78.3844 604.154 79.5701L583.923 100.764L601.066 126.448C601.539 127.275 601.894 127.87 601.894 128.343C601.894 129.647 599.651 129.663 595.036 130.728V132.852H629.253V130.721C623.922 130.126 622.858 129.42 620.375 126.103V126.1Z" fill="#005AA0"/>
<path d="M582.855 122.547V47.5947H557.398V49.7263C566.043 51.9761 566.279 52.3308 566.279 57.8978V122.547C566.279 127.108 566.11 128.172 561.3 129.641C559.759 130.084 558.165 129.901 557.067 129.547C552.544 128.091 552.314 126.925 552.314 122.544V86.7871C552.314 74.1159 543.197 71.275 535.498 71.275C528.512 71.275 518.449 74.4706 513.118 79.2101V72.4607H490.029V74.5922C498.674 76.842 498.91 77.1967 498.91 82.7604V122.544C498.91 128.108 498.674 128.466 490.029 130.712V132.844H524.367V130.712C515.841 128.462 515.486 127.989 515.486 122.544V80.9836C519.986 80.6289 524.367 80.2742 528.749 80.2742C535.025 80.2742 535.735 81.6963 535.735 87.6147V122.544C535.735 128.108 535.498 128.466 526.854 130.712V132.844H591.736V130.712C583.21 128.462 582.855 127.989 582.855 122.544V122.547Z" fill="#005AA0"/>
<path d="M655.159 71.2798C633.847 71.2798 625.202 75.4247 625.202 103.25C625.202 131.075 633.965 134.034 655.159 134.034C676.353 134.034 683.457 130.957 683.457 103.25C683.457 75.5429 677.18 71.2798 655.159 71.2798ZM655.159 128.943C644.146 128.943 642.964 127.998 642.964 103.25C642.964 78.5021 643.555 76.3739 655.159 76.3739C665.225 76.3739 665.698 79.0966 665.698 103.25C665.698 127.403 664.631 128.943 655.159 128.943Z" fill="#005AA0"/>
<path d="M667.479 49.7061H663.453C660.641 49.7061 658.362 51.9853 658.362 54.7968V58.9417C658.362 61.7532 660.641 64.0324 663.453 64.0324H667.479C670.291 64.0324 672.57 61.7532 672.57 58.9417V54.7968C672.57 51.9853 670.291 49.7061 667.479 49.7061Z" fill="#005AA0"/>
<path d="M771.527 49.7061H767.5C764.689 49.7061 762.41 51.9853 762.41 54.7968V58.9417C762.41 61.7532 764.689 64.0324 767.5 64.0324H771.527C774.339 64.0324 776.618 61.7532 776.618 58.9417V54.7968C776.618 51.9853 774.339 49.7061 771.527 49.7061Z" fill="#005AA0"/>
<path d="M644.863 49.7061H640.836C638.025 49.7061 635.746 51.9853 635.746 54.7968V58.9417C635.746 61.7532 638.025 64.0324 640.836 64.0324H644.863C647.675 64.0324 649.954 61.7532 649.954 58.9417V54.7968C649.954 51.9853 647.675 49.7061 644.863 49.7061Z" fill="#005AA0"/>
<path d="M729.278 71.3952C722.292 71.3952 716.489 73.645 708.793 77.7899V72.4593H685.704V74.5908C694.349 76.8406 694.585 77.1953 694.585 82.759V147.408C694.585 152.972 694.349 153.327 685.704 155.577V157.708H720.042V155.577C711.516 153.327 711.161 152.854 711.161 147.408V130.001C716.252 132.369 723.951 134.146 729.396 134.146C742.422 134.146 750.709 128.343 750.709 100.045C750.709 81.3368 745.145 71.3884 729.278 71.3884V71.3952ZM723.829 125.981C719.921 125.981 716.134 125.745 711.161 125.154V80.3944C714.952 79.9214 719.448 79.5667 721.343 79.5667C732.001 79.5667 732.947 80.6342 732.947 104.196C732.947 123.022 731.052 125.981 723.829 125.981Z" fill="#005AA0"/>
<path d="M265.067 126.929H258.145V61.455C258.145 55.8913 258.381 55.5366 267.026 53.2868V51.1553H231.979V53.2868C240.505 55.5366 240.856 56.0096 240.856 61.455V122.551C240.856 128.114 240.62 128.473 231.979 130.719V132.85H292.416L293.838 106.802H291.706C283.538 127.405 276.789 126.929 265.067 126.929Z" fill="#005AA0"/>
<path d="M300.516 51.2688V53.7517C309.147 55.9981 309.384 56.3528 309.384 61.9097V122.56C309.384 128.117 309.147 128.471 300.516 130.718V132.846H335.513V130.718C327 128.471 326.645 127.998 326.645 122.56V96.0755H332.794C340.952 95.9573 344.262 96.7849 347.336 108.726H350.056C349.937 102.933 349.819 98.2037 349.819 92.6468C349.819 86.4987 349.937 82.7153 350.056 77.1583H347.336C344.262 88.9816 341.306 90.1639 332.794 90.1639H326.645V57.1771H335.395C350.292 57.1771 352.065 59.5417 360.223 74.9119H362.352L360.696 51.1472L300.519 51.2654L300.516 51.2688Z" fill="#005AA0"/>
<path d="M917.903 72.4655C907.367 71.8743 893.746 71.2798 885.105 71.2798C871.133 71.2798 858.581 74.239 858.581 91.8826C858.581 99.9326 860.712 104.908 866.516 107.631C860.594 113.789 859.29 118.103 859.526 123.261C859.685 126.69 861.303 130.484 865.327 132.615C861.776 137.351 859.526 143.628 859.526 147.533C859.526 154.282 863.077 156.887 875.984 156.887H894.574C908.664 156.887 913.758 153.573 913.758 136.284C913.758 122.667 909.846 118.88 896.229 118.88H875.745C871.718 118.88 870.181 117.222 870.181 114.972C870.181 113.195 870.519 111.121 871.019 109.128C874.809 110.074 878.944 110.354 885.102 110.354C904.637 110.354 911.387 106.918 911.387 91.8826C911.387 85.015 909.61 80.1607 906.059 76.9617L917.899 74.5937V72.4621L917.903 72.4655ZM873.38 134.274H890.078C899.668 134.274 901.918 135.341 901.918 143.155C901.918 150.377 900.259 151.445 890.551 151.445H880.606C871.606 151.445 868.884 150.735 868.884 143.986C868.884 140.672 869.002 137.237 869.12 133.923C870.424 134.159 871.843 134.277 873.383 134.277L873.38 134.274ZM884.987 104.908C878.001 104.908 876.342 103.963 876.342 91.5279C876.342 77.3198 878.356 76.7252 884.987 76.7252C891.618 76.7252 893.631 78.1474 893.631 91.5279C893.631 103.959 892.804 104.908 884.987 104.908Z" fill="#005AA0"/>
<path d="M848.023 122.545V86.7882C848.023 74.1171 838.906 71.2761 831.21 71.2761C824.225 71.2761 814.161 74.4752 808.831 79.2112V72.4618H785.742V74.5934C794.386 76.8432 794.623 77.1979 794.623 82.7616V122.738C794.623 125.025 794.707 127.264 793.048 128.365C791.572 129.345 789.508 130.527 786.461 130.527C783.742 130.527 780.712 129.311 779.472 127.73C778.543 126.545 778.651 124.582 778.651 122.738V72.4618H753.194V74.5934C761.838 76.8432 762.075 77.1979 762.075 82.7616V122.545C762.075 128.112 761.838 128.467 753.194 130.717V132.848H820.08V130.713C811.553 128.463 811.199 127.991 811.199 122.542V80.9813C815.698 80.6266 820.08 80.2719 824.461 80.2719C830.737 80.2719 831.447 81.6941 831.447 87.6125V122.542C831.447 128.109 831.21 128.463 822.566 130.713V132.845H856.904V130.713C848.378 128.463 848.023 127.991 848.023 122.542V122.545Z" fill="#005AA0"/>
</svg>
