<svg xmlns="http://www.w3.org/2000/svg" viewBox="0 0 196 44" preserveAspectRatio="xMinYMid meet">
  <title>
    Länsförsäkringar Kronoberg
  </title>
  <g fill="none" fill-rule="evenodd">
    <g fill="#005AA0">
      <path d="M112.23 7.347v7.925c0 1.108-.047 1.18-1.756 1.627v.423h6.787V16.9c-1.684-.45-1.754-.544-1.754-1.628V5.295h-5.032v.425c1.71.448 1.755.52 1.755 1.627zM117.648 8.662h.94c1.103 0 1.186-.083 1.186-1.197v-.973c0-1.113-.083-1.197-1.187-1.197h-.94c-1.104 0-1.186.084-1.186 1.197v.973c0 1.114.084 1.197 1.188 1.197zM158.74 15.272V5.295h-5.033v.425c1.71.448 1.755.518 1.755 1.627v7.925c0 .814-.027 1.068-.718 1.323-.35.122-.757.182-.922.154-.583-.1-.837-.26-1.217-.77l-4.35-6.39s1.986-2.36 2.688-3.02c.468-.45.843-.732 1.92-.85v-.424h-4.353v.424c.936.024 1.357.118 1.357.378 0 .117-.14.306-.398.542l-4.07 4.293 3.39 5.118c.094.166.164.284.164.378 0 .26-.445.26-1.357.473v.424h12.896v-.426c-1.684-.447-1.754-.54-1.754-1.626zM161.82 5.295h-.94c-1.103 0-1.186.083-1.186 1.196v.975c0 1.113.083 1.197 1.187 1.197h.94c1.104 0 1.187-.084 1.187-1.197V6.49c0-1.11-.083-1.195-1.187-1.195zM58.093 12.135h-.42c-1.616 4.104-2.95 4.01-5.267 4.01h-1.368V3.102c0-1.108.046-1.18 1.755-1.627V1.05h-6.927v.425c1.685.448 1.755.542 1.755 1.627v12.17c0 1.11-.046 1.18-1.754 1.628v.424h11.946l.28-5.19zM76.134 16.9c-1.685-.45-1.755-.543-1.755-1.628V6.994c.888-.07 1.754-.142 2.62-.142 1.24 0 1.38.283 1.38 1.463v6.957c0 1.11-.046 1.18-1.755 1.628v.424h6.787V16.9c-1.685-.448-1.755-.543-1.755-1.628V8.15c0-2.524-1.802-3.09-3.323-3.09-1.38 0-3.37.637-4.423 1.58V5.296H69.35v.424c1.708.448 1.755.52 1.755 1.627v7.925c0 .71-.022.993-.482 1.224-.316.152-.562.165-.692.175-1.12.09-1.315-.476-1.315-1.468V8.668c0-2.358-1.334-3.608-3.65-3.608-3.066 0-5.805.896-5.805 3.208 0 1.014.445 1.58 1.615 1.58s1.638-.708 1.638-1.65c0-.92-.326-1.18-1.52-1.37v-.07s1.24-.07 2.106-.07c2.176 0 2.34.093 2.34 2.452v1.816h-2.83c-2.67 0-3.652.873-3.652 3.35 0 2.546.913 3.254 3.09 3.254 1.403 0 2.807-.472 3.556-.944.328.708 1.123.944 2.27.944.616 0 1.296-.064 2.078-.166.168-.022.412-.07.848-.07h5.438V16.9zm-10.797-1.156v.19c-.445.14-.96.21-1.428.21-1.242 0-1.64-.282-1.64-1.886 0-2.17.118-2.335 3.067-2.358v3.844zM61.522 3.668h.796c.936 0 1.006-.07 1.006-1.014V1.83c0-.945-.07-1.015-1.006-1.015h-.796c-.936 0-1.006.07-1.006 1.014v.824c0 .944.07 1.014 1.006 1.014zM65.992 3.668h.795c.936 0 1.006-.07 1.006-1.014V1.83c0-.945-.07-1.015-1.006-1.015h-.795c-.936 0-1.007.07-1.007 1.014v.824c0 .944.07 1.014 1.007 1.014zM87.848 16.452c-1.475 0-2.738-.614-3.815-2.972h-.42l.07 3.514c.63.19 2.55.566 4 .566 2.88 0 4.424-1.415 4.424-3.82 0-4.74-6.155-3.538-6.155-6.156 0-.99.82-1.415 1.802-1.415 1.38 0 2.27.494 3.206 2.57h.422l-.164-3.397s-1.755-.283-2.995-.283c-3.16 0-4.61 1.18-4.61 3.703 0 4.953 6.06 3.49 6.06 6.155 0 .968-.796 1.534-1.825 1.534zM91.906 17.324h6.787V16.9c-1.686-.448-1.756-.543-1.756-1.628V6.43l2.62-.603v-.53h-2.62V3.15c0-1.392.328-1.462 1.358-1.462h1.613v-.284C98.902.46 97.663.107 96.563.107c-1.638 0-2.902.92-2.902 3.114v12.052c0 1.11-.046 1.18-1.754 1.628v.424zM106.577 3.668h.796c.936 0 1.006-.07 1.006-1.014V1.83c0-.945-.072-1.015-1.007-1.015h-.796c-.936 0-1.006.07-1.006 1.014v.824c0 .944.07 1.014 1.007 1.014z"/>
      <path d="M104.903 17.56c4.212 0 5.593-.613 5.593-6.132 0-5.52-1.24-6.368-5.593-6.368-4.213 0-5.92.825-5.92 6.368 0 5.4 1.73 6.132 5.92 6.132zm0-11.486c1.99 0 2.082.543 2.082 5.354 0 4.93-.21 5.118-2.082 5.118-2.177 0-2.41-.19-2.41-5.118 0-4.86.116-5.354 2.41-5.354zM102.107 3.668h.796c.936 0 1.006-.07 1.006-1.014V1.83c0-.945-.07-1.015-1.007-1.015h-.796c-.936 0-1.006.07-1.006 1.014v.824c0 .944.07 1.014 1.007 1.014zM128.79 13.74c0-4.74-6.155-3.538-6.155-6.156 0-.99.82-1.415 1.802-1.415 1.38 0 2.27.494 3.207 2.57h.42l-.163-3.397s-1.754-.283-2.995-.283c-3.16 0-4.61 1.18-4.61 3.703 0 4.953 6.06 3.49 6.06 6.155 0 .967-.794 1.534-1.824 1.534-1.474 0-2.737-.614-3.814-2.972h-.42l.07 3.514c.63.19 2.55.566 4 .566 2.88 0 4.424-1.415 4.424-3.82zM166.39 3.503h.794c.937 0 1.007-.07 1.007-1.014v-.826c0-.944-.07-1.014-1.006-1.014h-.795c-.938 0-1.008.07-1.008 1.014v.825c0 .943.07 1.013 1.007 1.013zM181.88 15.272V8.15c0-2.524-1.802-3.09-3.323-3.09-1.38 0-3.37.637-4.423 1.58V5.296h-4.563v.424c1.71.448 1.756.52 1.756 1.627v7.925c0 .885-.033 1.11-.912 1.39-.26.09-.635.085-.843.02-.935-.298-.98-.524-.98-1.41V5.296h-5.033v.424c1.708.45 1.755.52 1.755 1.628v7.924c0 1.11-.047 1.18-1.755 1.628v.424h12.801V16.9c-1.685-.448-1.755-.543-1.755-1.628V6.994c.89-.07 1.755-.142 2.62-.142 1.242 0 1.382.283 1.382 1.463v6.957c0 1.11-.047 1.18-1.755 1.628v.424h6.433V16.9c-1.36-.394-1.402-.543-1.402-1.628zM195 5.296c-2.083-.118-4.774-.236-6.482-.236-2.762 0-5.242.59-5.242 4.104 0 1.604.42 2.594 1.567 3.136-1.17 1.227-1.428 2.086-1.38 3.113.03.684.386 1.367 1.18 1.864-.7.943-1.18 2.193-1.18 2.97 0 1.346.7 1.864 3.252 1.864h3.674c2.784 0 3.79-.66 3.79-4.102 0-2.713-.772-3.467-3.463-3.467h-4.05c-.795 0-1.1-.33-1.1-.777 0-.354.068-.767.167-1.164.75.187 1.566.243 2.783.243 3.862 0 5.195-.684 5.195-3.68 0-1.368-.35-2.334-1.053-2.97L195 5.72v-.424zm-8.8 12.31h3.3c1.896 0 2.34.213 2.34 1.77 0 1.438-.327 1.65-2.247 1.65h-1.965c-1.78 0-2.317-.14-2.317-1.485 0-.66.024-1.343.048-2.004.257.048.538.07.842.07zm2.294-5.848c-1.38 0-1.708-.188-1.708-2.665 0-2.83.398-2.948 1.708-2.948 1.334 0 1.71.283 1.71 2.948-.002 2.477-.165 2.665-1.71 2.665zM132.358 3.668h.795c.937 0 1.007-.07 1.007-1.014V1.83c0-.945-.07-1.015-1.007-1.015h-.795c-.936 0-1.007.07-1.007 1.014v.824c0 .944.072 1.014 1.008 1.014zM133.34 10.956c-2.667 0-3.65.873-3.65 3.35 0 2.546.913 3.254 3.09 3.254 1.403 0 2.807-.472 3.556-.944.328.708 1.123.944 2.27.944.46 0 .958-.036 1.506-.096.338-.038.695-.137 1.245-.14h5.588V16.9c-1.685-.448-1.755-.543-1.755-1.628V.342h-5.032V.77c1.71.448 1.755.52 1.755 1.627v12.878c0 .484-.008.77-.162.977-.06.08-.144.15-.257.213v-.002c-.03.02-.058.033-.088.048-.055.026-.116.052-.184.078-.325.107-.654.08-.825.07-.766-.047-.946-.593-.946-1.455V8.67c0-2.358-1.335-3.608-3.652-3.608-3.066 0-5.804.896-5.804 3.208 0 1.014.445 1.58 1.615 1.58s1.637-.708 1.637-1.65c0-.92-.327-1.18-1.52-1.37v-.07s1.24-.07 2.105-.07c2.177 0 2.34.093 2.34 2.452v1.816h-2.83zm2.832 4.788v.19c-.444.14-.96.21-1.427.21-1.24 0-1.638-.282-1.638-1.886 0-2.17.117-2.335 3.066-2.358v3.844z"/>
      <path d="M136.827 3.668h.796c.936 0 1.006-.07 1.006-1.014V1.83c0-.945-.07-1.015-1.007-1.015h-.796c-.936 0-1.006.07-1.006 1.014v.824c0 .944.07 1.014 1.007 1.014zM76.722 26.513c-4.212 0-5.92.826-5.92 6.368 0 5.402 1.732 6.133 5.92 6.133 4.213 0 5.594-.613 5.594-6.132 0-5.518-1.24-6.367-5.594-6.367zm0 11.486c-2.176 0-2.41-.19-2.41-5.12 0-4.857.117-5.353 2.41-5.353 1.99 0 2.083.543 2.083 5.354 0 4.93-.21 5.12-2.083 5.12zM94.778 36.725v-7.122c0-2.524-1.802-3.09-3.323-3.09-1.38 0-3.37.637-4.424 1.58V26.75H82.47v.424c1.708.448 1.755.52 1.755 1.627v7.926c0 1.108-.047 1.18-1.755 1.627v.425h6.787v-.425c-1.686-.448-1.755-.542-1.755-1.627v-8.28c.89-.07 1.755-.14 2.62-.14 1.24 0 1.38.283 1.38 1.462v6.958c0 1.11-.046 1.18-1.754 1.627v.425h6.787v-.425c-1.685-.448-1.755-.542-1.755-1.628zM102.183 26.513c-4.212 0-5.92.826-5.92 6.368 0 5.402 1.73 6.133 5.92 6.133 4.213 0 5.593-.613 5.593-6.132 0-5.518-1.24-6.367-5.593-6.367zm0 11.486c-2.176 0-2.41-.19-2.41-5.12 0-4.857.116-5.353 2.41-5.353 1.99 0 2.083.543 2.083 5.354 0 4.93-.21 5.12-2.083 5.12zM116.107 26.537c-1.24 0-2.293.353-3.58 1.014v-5.754h-5.032v.424c1.708.45 1.755.52 1.755 1.628v15.165l3.112-.872c1.007.496 2.62.897 3.768.897 2.574 0 4.212-1.156 4.212-6.793 0-3.726-1.1-5.707-4.235-5.707zM115.03 37.41c-.772 0-1.52-.048-2.504-.166V28.33c.75-.095 1.638-.166 2.012-.166 2.107 0 2.294.212 2.294 4.906 0 3.75-.374 4.34-1.802 4.34zM141.387 30.617c0 1.604.422 2.594 1.57 3.137-1.172 1.226-1.57 2.43-1.57 3.514 0 .684.35 1.44 1.147 1.863-.702.945-1.147 2.195-1.147 2.973 0 1.344.702 1.863 3.254 1.863h3.674c2.785 0 3.98-1.06 3.98-4.505 0-2.71-.96-3.065-3.652-3.065h-4.05c-.795 0-1.098-.33-1.098-.778 0-.354.093-1.085.187-1.604.75.19 1.732.283 2.95.283 3.86 0 5.195-.684 5.195-3.68 0-1.367-.35-2.334-1.054-2.97l2.34-.472v-.425c-2.08-.12-4.773-.236-6.48-.236-2.76 0-5.243.59-5.243 4.103zm2.74 8.844h3.298c1.896 0 2.34.213 2.34 1.77 0 1.44-.328 1.65-2.246 1.65h-1.967c-1.78 0-2.317-.14-2.317-1.485 0-.66.023-1.344.047-2.005.258.048.538.07.843.07zm4.187-8.914c0 2.477-.163 2.665-1.708 2.665-1.38 0-1.708-.187-1.708-2.664 0-2.83.398-2.948 1.708-2.948 1.334 0 1.708.283 1.708 2.948zM69.276 26.76h-.938c-1.105 0-1.188.082-1.188 1.196v.973c0 1.112.083 1.196 1.188 1.196h.938c1.105 0 1.188-.084 1.188-1.197v-.974c0-1.114-.083-1.197-1.188-1.197zM66.197 36.67v-9.91H61.2v.412c1.696.445 1.743.595 1.743 1.696v7.8c0 .874-.033 1.132-.89 1.423-.613.205-.98.126-1.122.064-.46-.206-.815-.63-1.492-1.617l-5.147-7.925 3.04-4.056c1.1-1.32 1.533-1.415 2.867-1.627v-.426h-5.065v.425c1.193.164 1.638.282 1.638.565 0 .212-.305.542-.75 1.06l-4.748 6.11 3.79 5.99c.373.52.584.85.584 1.062 0 .33-.468.424-1.52.636v.425H67.94v-.44c-1.673-.445-1.743-.592-1.743-1.67zM139.673 26.76h-.94c-1.103 0-1.186.082-1.186 1.196v.973c0 1.112.083 1.196 1.187 1.196h.94c1.104 0 1.186-.084 1.186-1.197v-.974c0-1.114-.082-1.197-1.187-1.197zM136.594 36.67v-9.91h-4.998v.412c1.697.445 1.743.595 1.743 1.696v7.8c0 1.102-.047 1.225-1.744 1.67v.44h6.74v-.44c-1.673-.445-1.742-.592-1.742-1.67z"/>
      <path d="M124.94 32.622h6.694c0-4.882-1.287-6.085-4.82-6.085-2.973 0-5.383 1.038-5.383 6.085 0 5.283 2.34 6.415 5.383 6.415 1.966 0 3.24-.495 4.387-1.533v-.236h-3.006c-3.183 0-3.276-.708-3.253-4.646zm1.733-5c1.24 0 1.59.377 1.59 3.632v.236l-3.322.07c.07-3.726.516-3.938 1.733-3.938zM51.038 36.725v-12.17c0-1.108.047-1.18 1.755-1.627v-.424h-6.927v.424c1.685.448 1.755.543 1.755 1.628v12.17c0 1.108-.046 1.18-1.754 1.627v.424h6.927v-.424c-1.685-.448-1.755-.542-1.755-1.628z"/>
    </g>
    <g fill="#005AA0">
      <path d="M14 1v11h14v28h11V1"/>
      <path d="M0 1v39h25.004V29H11V1"/>
    </g>
    <path fill="#E30613" d="M14 15h11.004v11.004H14"/>
  </g>
</svg>
