<svg xmlns="http://www.w3.org/2000/svg" viewBox="0 0 215 44" preserveAspectRatio="xMinYMid meet">
  <title>
    Länsförsäkringar Östgöta
  </title>
  <g fill="none" fill-rule="evenodd">
    <g fill="#005AA0">
      <path d="M112.377 7.347v7.925c0 1.108-.047 1.18-1.757 1.627v.424h6.796V16.9c-1.688-.45-1.758-.543-1.758-1.628V5.296h-5.038v.424c1.71.448 1.757.52 1.757 1.627zM117.803 8.662h.94c1.106 0 1.19-.083 1.19-1.197v-.973c0-1.113-.084-1.197-1.19-1.197h-.94c-1.106 0-1.19.084-1.19 1.197v.973c0 1.114.084 1.197 1.19 1.197zM158.95 15.272V5.296h-5.04v.424c1.71.448 1.758.52 1.758 1.627v7.925c0 .814-.028 1.068-.72 1.323-.35.123-.757.183-.922.155-.584-.1-.84-.258-1.22-.77l-4.355-6.39s1.99-2.36 2.693-3.02c.47-.448.844-.73 1.92-.85v-.424h-4.357v.425c.937.024 1.36.12 1.36.378 0 .118-.14.306-.4.542l-4.074 4.293 3.395 5.118c.094.166.164.285.164.38 0 .258-.444.26-1.358.47v.425h6.842v-.002h6.072V16.9c-1.687-.45-1.757-.543-1.757-1.628zM162.033 5.295h-.94c-1.105 0-1.188.084-1.188 1.197v.973c0 1.114.083 1.197 1.19 1.197h.938c1.106 0 1.19-.083 1.19-1.197v-.973c0-1.113-.084-1.197-1.19-1.197zM58.17 12.136h-.423c-1.616 4.104-2.952 4.01-5.272 4.01h-1.37V3.102c0-1.11.046-1.18 1.757-1.628V1.05h-6.936v.425c1.687.45 1.757.543 1.757 1.628v12.17c0 1.108-.047 1.18-1.757 1.627v.424h11.962l.28-5.188zM76.234 16.9c-1.687-.448-1.758-.543-1.758-1.627v-8.28c.89-.07 1.758-.14 2.625-.14 1.243 0 1.384.283 1.384 1.462v6.958c0 1.108-.047 1.18-1.758 1.627v.424h6.796V16.9c-1.687-.448-1.758-.543-1.758-1.627V8.15c0-2.524-1.804-3.09-3.327-3.09-1.383 0-3.374.637-4.43 1.58V5.297h-4.57v.425c1.712.45 1.76.52 1.76 1.628v7.925c0 .71-.023.993-.484 1.223-.316.152-.563.165-.693.175-1.123.09-1.317-.475-1.317-1.468V8.67c0-2.36-1.336-3.61-3.656-3.61-3.07 0-5.81.897-5.81 3.208 0 1.014.444 1.58 1.616 1.58 1.172 0 1.64-.707 1.64-1.65 0-.92-.328-1.18-1.523-1.37v-.07s1.242-.07 2.11-.07c2.178 0 2.342.094 2.342 2.452v1.816h-2.835c-2.67 0-3.656.873-3.656 3.35 0 2.546.915 3.254 3.094 3.254 1.406 0 2.812-.472 3.562-.944.328.708 1.125.944 2.273.944.616 0 1.296-.064 2.08-.165.168-.022.412-.07.848-.07h5.446V16.9zm-10.812-1.156v.19c-.445.14-.96.21-1.43.21-1.242 0-1.64-.282-1.64-1.886 0-2.17.117-2.334 3.07-2.358v3.844zM61.603 3.67h.796c.937 0 1.007-.072 1.007-1.015V1.83c0-.944-.07-1.015-1.008-1.015h-.797c-.938 0-1.008.07-1.008 1.014v.825c0 .943.07 1.014 1.008 1.014zM66.078 3.67h.797c.937 0 1.008-.072 1.008-1.015V1.83c0-.944-.07-1.015-1.008-1.015h-.797c-.937 0-1.007.07-1.007 1.014v.825c0 .943.07 1.014 1.008 1.014zM87.963 16.452c-1.476 0-2.74-.613-3.82-2.972h-.42l.07 3.515c.632.188 2.554.566 4.006.566 2.882 0 4.428-1.414 4.428-3.82 0-4.74-6.163-3.538-6.163-6.156 0-.99.82-1.415 1.805-1.415 1.382 0 2.272.494 3.21 2.57h.422l-.164-3.396s-1.758-.284-3-.284c-3.163 0-4.616 1.18-4.616 3.703 0 4.953 6.07 3.49 6.07 6.156 0 .966-.798 1.532-1.83 1.532zM92.027 17.325h6.795V16.9c-1.687-.448-1.757-.542-1.757-1.627V6.43l2.624-.602v-.532h-2.625V3.15c0-1.39.328-1.462 1.36-1.462h1.615v-.283C99.032.46 97.79.108 96.69.108c-1.64 0-2.906.92-2.906 3.113v12.053c0 1.11-.047 1.18-1.757 1.628v.425zM102.242 3.67h.797c.936 0 1.006-.072 1.006-1.015V1.83c0-.944-.07-1.015-1.007-1.015h-.798c-.938 0-1.008.07-1.008 1.014v.825c0 .943.07 1.014 1.008 1.014z"/>
      <path d="M105.04 17.56c4.22 0 5.6-.613 5.6-6.132 0-5.52-1.24-6.368-5.6-6.368-4.217 0-5.928.826-5.928 6.368 0 5.4 1.734 6.132 5.93 6.132zm0-11.486c1.992 0 2.086.543 2.086 5.354 0 4.93-.21 5.118-2.085 5.118-2.178 0-2.413-.188-2.413-5.118 0-4.858.117-5.354 2.414-5.354zM106.717 3.67h.797c.938 0 1.008-.072 1.008-1.015V1.83c0-.944-.07-1.015-1.008-1.015h-.797c-.937 0-1.007.07-1.007 1.014v.825c0 .943.07 1.014 1.007 1.014zM122.797 7.584c0-.99.82-1.415 1.804-1.415 1.384 0 2.274.494 3.212 2.57h.42l-.163-3.396s-1.758-.284-3-.284c-3.164 0-4.616 1.18-4.616 3.703 0 4.953 6.07 3.49 6.07 6.156 0 .966-.798 1.532-1.83 1.532-1.476 0-2.74-.613-3.82-2.972h-.42l.07 3.515c.632.188 2.554.566 4.007.566 2.883 0 4.43-1.414 4.43-3.82 0-4.74-6.163-3.538-6.163-6.156zM145.382 15.273V.343h-5.038V.77c1.71.447 1.757.517 1.757 1.626v12.877c0 .485-.008.772-.16.978-.062.082-.147.15-.26.214v-.002c-.03.018-.06.032-.088.047-.056.025-.117.05-.185.077-.326.107-.656.08-.826.07-.766-.047-.947-.593-.947-1.455V8.67c0-2.36-1.336-3.61-3.656-3.61-3.07 0-5.81.897-5.81 3.208 0 1.014.444 1.58 1.616 1.58 1.17 0 1.64-.707 1.64-1.65 0-.92-.328-1.18-1.523-1.37v-.07s1.242-.07 2.11-.07c2.178 0 2.342.094 2.342 2.452v1.816h-2.835c-2.67 0-3.656.873-3.656 3.35 0 2.546.915 3.254 3.095 3.254 1.406 0 2.812-.472 3.562-.944.328.708 1.124.944 2.273.944.46 0 .96-.036 1.508-.096.338-.038.696-.137 1.246-.14h5.595V16.9c-1.688-.448-1.758-.542-1.758-1.627zm-9.03.47v.19c-.445.142-.96.212-1.43.212-1.24 0-1.64-.283-1.64-1.887 0-2.17.118-2.334 3.07-2.358v3.844zM166.61 3.504h.795c.938 0 1.008-.07 1.008-1.014v-.826c0-.943-.07-1.014-1.008-1.014h-.796c-.94 0-1.01.07-1.01 1.014v.826c0 .943.07 1.014 1.01 1.014zM182.12 15.273V8.15c0-2.524-1.804-3.09-3.327-3.09-1.382 0-3.374.637-4.428 1.58V5.297h-4.57v.425c1.71.45 1.758.52 1.758 1.628v7.925c0 .884-.033 1.108-.914 1.39-.26.088-.637.084-.845.018-.937-.296-.983-.52-.983-1.408V5.296h-5.04v.424c1.712.45 1.76.52 1.76 1.628v7.924c0 1.11-.048 1.18-1.76 1.628v.424h12.817V16.9c-1.686-.45-1.756-.543-1.756-1.628V6.994c.89-.07 1.757-.142 2.624-.142 1.242 0 1.382.283 1.382 1.463v6.957c0 1.11-.046 1.18-1.757 1.628v.424h6.442V16.9c-1.36-.394-1.404-.542-1.404-1.627zM190.97 14.542h-4.055c-.797 0-1.1-.33-1.1-.78 0-.353.066-.766.165-1.163.75.188 1.568.243 2.787.243 3.867 0 5.202-.684 5.202-3.68 0-1.367-.352-2.334-1.055-2.97l2.343-.473v-.424c-2.085-.118-4.78-.236-6.49-.236-2.766 0-5.25.59-5.25 4.104 0 1.604.422 2.594 1.57 3.136-1.172 1.227-1.43 2.086-1.383 3.113.03.684.388 1.367 1.183 1.864-.703.943-1.183 2.193-1.183 2.972 0 1.343.703 1.862 3.257 1.862h3.68c2.788 0 3.796-.66 3.796-4.104 0-2.712-.774-3.466-3.47-3.466zm-2.226-8.397c1.335 0 1.71.283 1.71 2.948 0 2.477-.164 2.666-1.71 2.666-1.383 0-1.71-.19-1.71-2.667 0-2.83.397-2.948 1.71-2.948zm1.1 14.882h-1.968c-1.78 0-2.32-.14-2.32-1.485 0-.66.023-1.345.047-2.005.257.047.54.07.843.07h3.304c1.9 0 2.344.213 2.344 1.77 0 1.438-.328 1.65-2.25 1.65zM132.532 3.67h.797c.937 0 1.007-.072 1.007-1.015V1.83c0-.944-.07-1.015-1.008-1.015h-.798c-.937 0-1.007.07-1.007 1.014v.825c0 .943.07 1.014 1.007 1.014z"/>
      <path d="M137.008 3.67h.797c.937 0 1.007-.072 1.007-1.015V1.83c0-.944-.07-1.015-1.007-1.015h-.797c-.937 0-1.007.07-1.007 1.014v.825c0 .943.07 1.014 1.008 1.014zM210.482 15.272V5.296h-5.038v.424c1.71.448 1.757.52 1.757 1.627v7.925c0 .787-.05 1.056-.682 1.292-.234.088-.753.195-1.236.003-.482-.258-.583-.648-.583-1.365V8.67c0-2.36-1.337-3.61-3.657-3.61-3.07 0-5.81.897-5.81 3.208 0 1.014.444 1.58 1.616 1.58 1.17 0 1.64-.707 1.64-1.65 0-.92-.33-1.18-1.524-1.37v-.07s1.242-.07 2.11-.07c2.178 0 2.342.094 2.342 2.452v1.816h-2.835c-2.67 0-3.656.873-3.656 3.35 0 2.546.914 3.254 3.094 3.254 1.407 0 2.813-.472 3.563-.944.328.708 1.125.944 2.272.944.75 0 1.962-.236 2.783-.236h5.602v-.425c-1.688-.45-1.758-.543-1.758-1.628zm-9.064.472v.19c-.445.14-.96.21-1.43.21-1.24 0-1.64-.282-1.64-1.886 0-2.17.118-2.334 3.07-2.358v3.844zM213.567 5.295h-.94c-1.106 0-1.19.084-1.19 1.197v.973c0 1.114.084 1.197 1.19 1.197h.94c1.106 0 1.19-.083 1.19-1.197v-.973c0-1.113-.084-1.197-1.19-1.197zM55.032 18.853c-.937 0-1.008.07-1.008 1.014v.826c0 .943.07 1.014 1.008 1.014h.797c.936 0 1.006-.07 1.006-1.014v-.826c0-.943-.07-1.014-1.007-1.014h-.798zM50.556 18.853c-.937 0-1.008.07-1.008 1.014v.826c0 .943.07 1.014 1.008 1.014h.797c.937 0 1.007-.07 1.007-1.014v-.826c0-.943-.07-1.014-1.007-1.014h-.797zM53.38 22.98c-6.542 0-7.426 1.088-7.426 8.017 0 6.956.93 8.018 7.292 8.018 6.784 0 7.226-1.062 7.226-8.018 0-6.93-.53-8.017-7.093-8.017zm-.138 14.973c-3.18 0-3.77-.053-3.77-6.956 0-6.956.56-6.956 3.734-6.956 3.175 0 3.748 0 3.748 6.957 0 6.903-.533 6.956-3.712 6.956zM64.216 29.038c0-.99.82-1.415 1.804-1.415 1.383 0 2.273.495 3.21 2.57h.422l-.164-3.396s-1.757-.283-3-.283c-3.163 0-4.616 1.18-4.616 3.703 0 4.953 6.07 3.49 6.07 6.156 0 .967-.797 1.533-1.828 1.533-1.477 0-2.742-.614-3.82-2.972h-.422l.07 3.515c.634.187 2.555.565 4.008.565 2.882 0 4.43-1.416 4.43-3.82 0-4.742-6.164-3.54-6.164-6.157zM74.875 34.863V27.74l2.625-.565v-.425h-2.625v-3.396h-.42l-2.86 2.17v10.543c0 2.17.75 2.924 2.765 2.924 1.547 0 2.446-.635 3.196-1.155v-.4h-.22c-2.32 0-2.46-.143-2.46-2.572zM85.175 36.397H81.12c-.795 0-1.1-.33-1.1-.78 0-.353.094-1.084.187-1.603.75.19 1.735.283 2.953.283 3.867 0 5.202-.684 5.202-3.68 0-1.367-.35-2.334-1.054-2.97l2.343-.472v-.425c-2.084-.118-4.78-.236-6.49-.236-2.765 0-5.25.59-5.25 4.104 0 1.604.423 2.594 1.57 3.137-1.17 1.226-1.57 2.43-1.57 3.514 0 .682.352 1.437 1.15 1.862-.704.943-1.15 2.193-1.15 2.972 0 1.344.704 1.863 3.258 1.863h3.68c2.788 0 3.983-1.06 3.983-4.505 0-2.712-.96-3.065-3.655-3.065zM83.137 27.6c1.336 0 1.71.282 1.71 2.947 0 2.477-.163 2.666-1.71 2.666-1.383 0-1.71-.19-1.71-2.666 0-2.83.398-2.948 1.71-2.948zm.914 15.282h-1.968c-1.78 0-2.32-.14-2.32-1.485 0-.66.024-1.345.047-2.005.257.047.54.07.843.07h3.304c1.898 0 2.344.213 2.344 1.77 0 1.438-.328 1.65-2.25 1.65zM92.673 22.27c-.937 0-1.007.07-1.007 1.013v.825c0 .944.07 1.014 1.007 1.014h.797c.938 0 1.008-.07 1.008-1.014v-.825c0-.944-.07-1.014-1.008-1.014h-.797zM95.472 26.514c-4.218 0-5.928.826-5.928 6.368 0 5.4 1.734 6.132 5.928 6.132 4.218 0 5.6-.613 5.6-6.132 0-5.52-1.24-6.368-5.6-6.368zm0 11.486c-2.18 0-2.413-.19-2.413-5.118 0-4.86.116-5.354 2.412-5.354 1.992 0 2.086.543 2.086 5.354 0 4.93-.21 5.118-2.086 5.118zM97.946 22.27h-.797c-.938 0-1.008.07-1.008 1.013v.825c0 .944.07 1.014 1.007 1.014h.796c.937 0 1.007-.07 1.007-1.014v-.825c0-.943-.07-1.014-1.007-1.014zM105.757 34.863V27.74l2.624-.565v-.425h-2.623v-3.396h-.422l-2.86 2.17v10.543c0 2.17.75 2.924 2.766 2.924 1.548 0 2.412-.635 3.162-1.155v-.4h-.184c-2.32 0-2.46-.143-2.46-2.572zM118.303 36.656v-6.533c0-2.36-1.336-3.61-3.656-3.61-3.07 0-5.81.898-5.81 3.21 0 1.013.444 1.58 1.615 1.58 1.172 0 1.64-.708 1.64-1.652 0-.918-.327-1.178-1.522-1.367v-.07s1.242-.07 2.11-.07c2.178 0 2.342.093 2.342 2.452v1.816h-2.835c-2.672 0-3.656.874-3.656 3.35 0 2.547.915 3.255 3.095 3.255 1.406 0 2.812-.472 3.56-.944.33.71 1.126.945 2.274.945.75 0 1.593-.095 2.6-.236v-.425c-1.523-.26-1.757-.59-1.757-1.7zm-3.28.542v.19c-.446.14-.962.21-1.43.21-1.242 0-1.64-.282-1.64-1.886 0-2.17.117-2.334 3.07-2.358v3.844z"/>
    </g>
    <g fill="#005AA0">
      <path d="M14 1v11h14v28h11V1"/>
      <path d="M0 1v39h25.004V29H11V1"/>
    </g>
    <path fill="#E30613" d="M14 15h11.004v11.004H14"/>
  </g>
</svg>
