<svg width="920" height="184" viewBox="0 0 920 184" fill="none" xmlns="http://www.w3.org/2000/svg">
<path d="M65.8005 0V51.1787H132.821V184H184V0H65.8005Z" fill="#005AA0"/>
<path d="M0 0V184H118.199V132.821H51.1787V0H0Z" fill="#005AA0"/>
<path d="M118.2 65.7993H65.8013V118.198H118.2V65.7993Z" fill="#E30613"/>
<path d="M432.108 85.9558C427.37 83.5887 422.163 81.9298 417.663 80.0362C408.784 75.8909 406.413 71.6302 406.413 65.8261C406.413 59.3137 411.505 55.8805 418.845 55.8805C428.198 55.8805 434.829 60.2606 440.749 75.2982H443.474V52.328C443.474 52.328 433.648 49.9609 421.805 49.9609C402.741 49.9609 391.61 60.0258 391.61 74.9441C391.61 84.0621 396.941 91.0478 405.701 95.4279C409.727 97.2061 414.465 98.8611 418.371 100.52C429.976 105.258 432.816 109.399 432.816 116.743C432.816 123.375 428.317 128.109 419.434 128.109C411.147 128.109 399.897 124.202 395.517 105.258H392.203L392.911 131.307C400.016 132.847 408.307 134.028 415.408 134.028C433.879 134.028 447.257 127.989 447.257 107.152C447.257 97.7988 442.165 90.8092 432.1 85.9558H432.108Z" fill="#005AA0"/>
<path d="M493.885 49.9609H497.911C500.721 49.9609 503.003 52.2433 503.003 55.053V59.1983C503.003 62.008 500.721 64.2904 497.911 64.2904H493.885C491.075 64.2904 488.793 62.008 488.793 59.1983V55.053C488.793 52.2433 491.075 49.9609 493.885 49.9609Z" fill="#005AA0"/>
<path d="M471.269 49.9609H475.295C478.104 49.9609 480.387 52.2433 480.387 55.053V59.1983C480.387 62.008 478.104 64.2904 475.295 64.2904H471.269C468.459 64.2904 466.177 62.008 466.177 59.1983V55.053C466.177 52.2433 468.459 49.9609 471.269 49.9609Z" fill="#005AA0"/>
<path d="M485.476 71.2734C464.161 71.2734 455.52 75.4187 455.52 103.242C455.52 131.066 464.284 134.03 485.476 134.03C506.668 134.03 513.777 130.95 513.777 103.242C513.777 75.5342 507.503 71.2734 485.476 71.2734ZM485.476 128.937C474.464 128.937 473.279 127.991 473.279 103.242C473.279 78.494 473.872 76.3655 485.476 76.3655C495.541 76.3655 496.014 79.0867 496.014 103.242C496.014 127.398 494.948 128.937 485.476 128.937Z" fill="#005AA0"/>
<path d="M265.069 126.929H258.145V61.4514C258.145 55.8859 258.38 55.5318 267.025 53.2802V51.1479H231.977V53.2802C240.502 55.5318 240.856 56.0052 240.856 61.4514V122.545C240.856 128.11 240.621 128.464 231.977 130.716V132.848H292.416L293.836 106.799H291.704C283.532 127.402 276.785 126.929 265.062 126.929H265.069Z" fill="#005AA0"/>
<path d="M300.521 51.2707V53.7532C309.151 55.9971 309.389 56.3551 309.389 61.909V122.56C309.389 128.118 309.155 128.472 300.521 130.716V132.844H335.516V130.716C327.002 128.472 326.648 127.998 326.648 122.56V96.0756H332.794C340.95 95.9563 344.26 96.7876 347.336 108.727H350.053C349.934 102.934 349.818 98.204 349.818 92.6462C349.818 86.4996 349.937 82.7161 350.053 77.1583H347.336C344.26 88.9821 341.304 90.1637 332.794 90.1637H326.648V57.1787H335.396C350.295 57.1787 352.066 59.5419 360.225 74.9144H362.354L360.699 51.1514L300.521 51.2707Z" fill="#005AA0"/>
<path d="M558.496 71.3364C552.465 71.3364 545.722 74.6503 540.28 81.2743V72.518H517.406C517.375 72.518 517.363 72.518 517.363 72.518V74.5887C525.946 76.8211 526.185 77.5755 526.185 83.1025V122.265C526.185 127.792 525.95 128.412 517.363 130.644V132.849H551.468V130.644C543.001 128.412 542.647 127.673 542.647 122.265V84.3495C545.837 82.2211 549.505 80.3274 552.819 79.9733C552.227 80.9202 551.992 82.2211 551.992 83.2872C551.992 87.4286 554.12 89.4378 560.036 89.4378C565.952 89.4378 567.961 87.4248 567.961 81.5129C567.961 74.4155 564.058 71.3403 558.496 71.3403V71.3364Z" fill="#005AA0"/>
<path d="M696.518 122.548V47.5952H671.062V49.7275C679.706 51.9752 679.941 52.3332 679.941 57.8987V122.548C679.941 124.55 680.176 127.683 678.013 129.018C675.7 130.446 673.898 130.493 673.002 130.493C672.105 130.493 670.408 130.439 668.09 129.018C665.604 127.494 665.427 124.55 665.427 122.548L665.308 86.6691C665.308 73.9986 656.428 71.2774 648.731 71.2774C642.338 71.2774 633.22 73.8831 627.654 77.9091C624.814 72.1088 618.417 71.2774 612.616 71.2774C605.75 71.2774 596.039 74.1179 590.593 78.7366V72.459H590.574H570.429V74.8838C576.179 76.4465 576.368 77.0662 576.368 81.9119V122.545C576.368 128.11 576.029 128.464 567.384 130.716V132.848H601.724V130.716C593.199 128.468 592.845 127.995 592.845 122.545L592.725 80.865C597.225 80.3916 601.605 80.1568 605.869 80.1568C612.143 80.1568 612.855 81.5771 612.855 87.2619L612.736 122.548C612.736 128.114 612.501 128.468 603.856 130.72V132.852H638.192V130.72C629.667 128.472 629.313 127.999 629.313 122.548L629.194 85.4875C629.194 83.7093 629.074 82.1736 628.72 80.8689C633.22 80.5148 637.6 80.1607 641.983 80.1607C648.257 80.1607 648.969 81.5809 648.969 87.2657L648.85 122.552C648.85 128.118 648.615 128.472 639.97 130.724V132.856H705.398V130.727C696.872 128.48 696.518 128.006 696.518 122.556V122.548Z" fill="#005AA0"/>
<path d="M891.753 122.548L891.607 47.5952H866.297V49.7275C874.941 51.9752 875.176 52.3332 875.176 57.8987V75.3034C869.849 72.4629 863.337 71.2774 858.364 71.2774C845.22 71.3967 835.748 80.2761 835.748 100.052C835.748 123.022 840.898 134.034 859.488 134.034C864.815 134.034 870.854 132.14 877.84 129.18V132.852H900.929V130.72C892.284 128.472 891.753 128.114 891.753 122.548ZM863.395 125.982C855.697 125.982 853.511 121.128 853.511 104.193C853.511 80.6302 854.458 79.5641 865.115 79.5641C867.009 79.5641 871.862 79.5641 875.18 80.1568L875.476 124.916C870.504 125.862 866.478 125.982 863.399 125.982H863.395Z" fill="#005AA0"/>
<path d="M825.864 122.545V86.7845C825.864 74.1139 816.746 71.2734 809.052 71.2734C802.066 71.2734 792.002 74.4719 786.675 79.206V72.455L786.629 72.4858L786.671 72.455H763.581V74.5873C772.226 76.8389 772.461 77.193 772.461 82.7585V122.402C772.461 125.666 772.311 127.017 770.421 128.433C768.281 130.034 766.526 130.389 765.105 130.389C762.842 130.389 760.421 129.142 759.298 127.86C758.062 126.455 758.077 123.672 758.077 122.19V89.3902C758.077 77.551 751.33 71.2734 739.607 71.2734C724.096 71.2734 710.24 75.7728 710.24 87.3772C710.24 92.4693 712.491 95.3098 718.411 95.3098C724.33 95.3098 726.701 91.7572 726.701 87.0192C726.701 82.2813 725.042 81.0997 719.003 80.1528V79.7987C719.003 79.7987 725.277 79.4446 729.661 79.4446C740.673 79.4446 741.5 79.918 741.5 91.7572V100.875H727.175C713.677 100.875 708.704 105.255 708.704 117.687C708.704 130.119 713.323 134.026 724.334 134.026C731.439 134.026 738.544 131.659 742.332 129.288C743.99 132.84 748.016 134.026 753.817 134.026C757.604 134.026 761.792 132.84 766.603 132.84H797.929V130.712C789.404 128.464 789.049 127.987 789.049 122.541V80.9803C793.549 80.6262 797.929 80.2683 802.313 80.2683C808.586 80.2683 809.298 81.6885 809.298 87.6081V122.537C809.298 128.102 809.06 128.456 800.419 130.708V132.84H834.755V130.708C826.23 128.46 825.876 127.983 825.876 122.537L825.864 122.545ZM741.493 125.858C739.241 126.57 736.639 126.925 734.268 126.925C727.995 126.925 725.978 125.504 725.978 117.452C725.978 106.56 726.57 105.729 741.489 105.613V125.862L741.493 125.858Z" fill="#005AA0"/>
</svg>
