<?xml version="1.0" encoding="utf-8"?>
<!-- Generator: Adobe Illustrator 27.4.1, SVG Export Plug-In . SVG Version: 6.00 Build 0)  -->
<svg version="1.1" id="Lager_1" xmlns="http://www.w3.org/2000/svg" xmlns:xlink="http://www.w3.org/1999/xlink" x="0px" y="0px"
	 viewBox="0 0 182 44" style="enable-background:new 0 0 182 44;" xml:space="preserve">
<style type="text/css">
	.st0{fill:#065AA0;}
	.st1{fill:#E20917;}
</style>
<g>
	<g>
		<g>
			<polygon class="st0" points="15.7,0 15.7,12.2 31.8,12.2 31.8,44 44,44 44,0 			"/>
			<polygon class="st0" points="0,0 0,44 28.3,44 28.3,31.8 12.2,31.8 12.2,0 			"/>
		</g>
		<g>
			<rect x="15.7" y="15.7" class="st1" width="12.5" height="12.5"/>
		</g>
	</g>
	<g>
		<path class="st0" d="M130.8,15.5c2,0,2.4-0.9,2.4-2.3c0-1.5-0.4-2.3-2.4-2.3c-2,0-2.4,0.7-2.4,2.3
			C128.5,14.6,128.9,15.5,130.8,15.5z M130.8,12.1c0.8,0,1,0.3,1,1.1c0,0.8-0.2,1.1-1,1.1c-0.8,0-1-0.3-1-1.1
			C129.9,12.4,130,12.1,130.8,12.1z"/>
		<path class="st0" d="M159.2,24.3h8.1c0-5.9-1.6-7.3-5.8-7.3c-3.6,0-6.5,1.2-6.5,7.3c0,6.3,2.8,7.7,6.5,7.7c2.4,0,4.1-0.6,5.5-1.8
			v-0.3h-3.9C159.2,29.9,159.1,29.1,159.2,24.3z M161.2,18.3c1.5,0,1.9,0.5,1.9,4.4V23l-4,0.1C159.2,18.6,159.8,18.3,161.2,18.3z"/>
		<path class="st0" d="M63.4,30.4h-1.7V14.7c0-1.3,0.1-1.4,2.1-2v-0.5h-8.4v0.5c2,0.5,2.1,0.7,2.1,2v14.6c0,1.3-0.1,1.4-2.1,2v0.5
			h14.5l0.3-6.2h-0.5C67.8,30.5,66.2,30.4,63.4,30.4z"/>
		<path class="st0" d="M71.9,12.3v0.6c2.1,0.5,2.1,0.6,2.1,2v14.5c0,1.3-0.1,1.4-2.1,2v0.5h8.4v-0.5c-2-0.5-2.1-0.7-2.1-2V23h1.5
			c2,0,2.7,0.2,3.5,3h0.7c0-1.4-0.1-2.5-0.1-3.8c0-1.5,0-2.4,0.1-3.7h-0.7c-0.7,2.8-1.4,3.1-3.5,3.1h-1.5v-7.9h2.1
			c3.6,0,4,0.6,5.9,4.2h0.5l-0.4-5.7L71.9,12.3z"/>
		<path class="st0" d="M103.3,20.6c-1.1-0.6-2.4-1-3.5-1.4c-2.1-1-2.7-2-2.7-3.4c0-1.6,1.2-2.4,3-2.4c2.2,0,3.8,1,5.2,4.6h0.7v-5.5
			c0,0-2.4-0.6-5.2-0.6c-4.6,0-7.2,2.4-7.2,6c0,2.2,1.3,3.9,3.4,4.9c1,0.4,2.1,0.8,3,1.2c2.8,1.1,3.5,2.1,3.5,3.9
			c0,1.6-1.1,2.7-3.2,2.7c-2,0-4.7-0.9-5.7-5.5h-0.8l0.2,6.2c1.7,0.4,3.7,0.7,5.4,0.7c4.4,0,7.6-1.4,7.6-6.4
			C107,23.4,105.7,21.7,103.3,20.6z"/>
		<path class="st0" d="M113.8,29.3V11.4h-6.1v0.5c2.1,0.5,2.1,0.6,2.1,2v15.5c0,1.3-0.1,1.4-2.1,2v0.5h8.2v-0.5
			C113.8,30.7,113.8,30.6,113.8,29.3z"/>
		<path class="st0" d="M122.8,30.2l-5.3-7.7c0,0,2.3-2.7,3.2-3.5c0.6-0.5,1-1,2.4-1.1v-0.5h-5.3v0.5c1.1,0,1.6,0.1,1.6,0.5
			c0,0.1-0.3,0.5-0.6,0.7l-4.8,5.1l4.1,6.1c0.1,0.2,0.2,0.3,0.2,0.5c0,0.3-0.5,0.3-1.6,0.6v0.5h7.7v-0.5
			C123.6,31.1,123.3,30.9,122.8,30.2z"/>
		<path class="st0" d="M152.6,29.3v-8.6c0-3-2.2-3.7-4-3.7c-1.7,0-4.1,0.8-5.4,1.9v-1.6l0,0l0,0h-5.5v0.5c2.1,0.5,2.1,0.6,2.1,2
			l0,9.5c0,0.8,0,1.1-0.5,1.4c-0.5,0.4-0.9,0.5-1.3,0.5c-0.5,0-1.2-0.3-1.5-0.6c-0.3-0.3-0.3-1-0.3-1.4v-7.8c0-2.8-1.6-4.3-4.4-4.3
			c-3.7,0-7,1.1-7,3.9c0,1.2,0.5,1.9,2,1.9c1.4,0,2-0.8,2-2c0-1.1-0.4-1.4-1.8-1.6v-0.1c0,0,1.5-0.1,2.5-0.1c2.6,0,2.8,0.1,2.8,2.9
			v2.2h-3.4c-3.2,0-4.4,1-4.4,4c0,3.1,1.1,3.9,3.7,3.9c1.7,0,3.4-0.6,4.3-1.1c0.4,0.8,1.4,1.1,2.7,1.1c0.9,0,2-0.3,3.1-0.3l7.5,0
			v-0.5c-2-0.5-2.1-0.7-2.1-2v-9.9c1.1-0.1,2.1-0.2,3.2-0.2c1.5,0,1.7,0.3,1.7,1.8v8.4c0,1.3-0.1,1.4-2.1,2v0.5h8.2v-0.5
			C152.6,30.7,152.6,30.6,152.6,29.3z M132.3,30.1c-0.5,0.2-1.2,0.3-1.7,0.3c-1.5,0-2-0.3-2-2.3c0-2.6,0.1-2.8,3.7-2.8V30.1z"/>
	</g>
</g>
</svg>
