<svg width="936" height="184" viewBox="0 0 936 184" fill="none" xmlns="http://www.w3.org/2000/svg">
<path d="M65.8008 0V51.1781H132.822V184H184V0H65.8008Z" fill="#005AA0"/>
<path d="M0 0V184H118.199V132.822H51.1781V0H0Z" fill="#005AA0"/>
<path d="M118.199 65.7993H65.8013V118.198H118.199V65.7993Z" fill="#E30613"/>
<path d="M501.184 49.9639H505.21C508.019 49.9639 510.303 52.2437 510.303 55.057V59.1988C510.303 62.0084 508.023 64.2919 505.21 64.2919H501.184C498.374 64.2919 496.091 62.0121 496.091 59.1988V55.057C496.091 52.2474 498.37 49.9639 501.184 49.9639Z" fill="#005AA0"/>
<path d="M478.927 49.9639H482.953C485.762 49.9639 488.042 52.2437 488.042 55.0533V59.1988C488.042 62.0084 485.762 64.2919 482.949 64.2919H478.923C476.113 64.2919 473.83 62.0121 473.83 59.1988V55.057C473.83 52.2474 476.11 49.9639 478.923 49.9639H478.927Z" fill="#005AA0"/>
<path d="M265.069 126.929H258.148V61.4526C258.148 55.8893 258.383 55.5348 267.028 53.2848V51.1543H231.98V53.2848C240.506 55.5348 240.861 56.0087 240.861 61.4526V122.548C240.861 128.112 240.626 128.47 231.98 130.72V132.85H292.419L293.841 106.802H291.71C283.543 127.403 276.793 126.929 265.069 126.929Z" fill="#005AA0"/>
<path d="M468.912 51.1504H446.308V53.2809C452.938 54.8182 455.188 55.2921 455.188 57.4264C455.188 58.3741 454.714 59.5569 454.125 61.2136L436.483 109.877H436.129L416.357 62.1614C415.409 59.9114 414.7 58.4898 414.7 57.4264C414.7 55.6503 416.596 54.9376 422.868 53.2809V51.1504H386.033V53.2809C392.122 54.2809 393.622 55.766 395.988 61.4487L426.062 134.029H432.931C432.931 134.029 456.61 70.2097 460.043 61.5681C462.412 55.6503 463.244 54.4376 468.912 53.2809V51.1504Z" fill="#005AA0"/>
<path d="M300.52 51.27V53.755C309.15 56.0012 309.385 56.3557 309.385 61.9115V122.563C309.385 128.119 309.15 128.474 300.52 130.72V132.85H335.515V130.72C327.004 128.474 326.65 128 326.65 122.563V96.0788H332.799C340.956 95.9594 344.265 96.7877 347.34 108.728H350.06C349.94 102.933 349.825 98.2056 349.825 92.6497C349.825 86.5006 349.944 82.7171 350.06 77.1612H347.34C344.265 88.9856 341.31 90.1684 332.799 90.1684H326.65V57.184H335.4C350.299 57.184 352.071 59.5496 360.228 74.9187H362.354L360.701 51.1543L300.524 51.2737L300.52 51.27Z" fill="#005AA0"/>
<path d="M562.478 71.3283C556.445 71.3283 549.702 74.6417 544.262 81.2647V72.5111H521.344V74.582C529.93 76.817 530.165 77.567 530.165 83.0967V122.26C530.165 125.898 529.829 127.017 527.938 128.435C525.8 130.036 523.344 130.391 522.288 130.391C520.024 130.391 517.091 129.141 515.964 127.861C514.729 126.454 514.744 123.671 514.744 122.193V89.3951C514.744 77.5558 507.994 71.2798 496.27 71.2798C480.759 71.2798 466.905 75.7797 466.905 87.3839C466.905 92.4771 469.155 95.3166 475.077 95.3166C480.998 95.3166 483.368 91.7644 483.368 87.0257C483.368 82.287 481.711 81.1042 475.67 80.1602V79.8057C475.67 79.8057 481.946 79.4513 486.327 79.4513C497.341 79.4513 498.166 79.9251 498.166 91.7644V100.884H483.838C470.338 100.884 465.364 105.264 465.364 117.697C465.364 130.129 469.984 134.036 480.995 134.036C488.099 134.036 495.203 131.667 498.994 129.301C500.651 132.853 504.677 134.036 510.479 134.036C514.266 134.036 519.005 132.849 523.818 132.849H555.448V130.644C546.982 128.409 546.628 127.674 546.628 122.264V84.3467C549.818 82.2161 553.489 80.3244 556.799 79.9699C556.209 80.9177 555.971 82.2199 555.971 83.2833C555.971 87.425 558.101 89.4361 564.015 89.4361C569.929 89.4361 571.94 87.425 571.94 81.5109C571.94 74.4141 568.038 71.3395 562.478 71.3395V71.3283ZM498.166 125.857C495.916 126.57 493.311 126.924 490.942 126.924C484.666 126.924 482.651 125.503 482.651 117.45C482.651 106.555 483.245 105.727 498.162 105.611V125.857H498.166Z" fill="#005AA0"/>
<path d="M700.422 122.545V47.5947H674.964V49.7253C683.605 51.9752 683.844 52.3297 683.844 57.8968V122.548C683.844 124.548 684.079 127.683 681.915 129.018C679.605 130.448 677.799 130.492 676.9 130.492C676.001 130.492 674.307 130.44 671.99 129.018C669.501 127.492 669.326 124.548 669.326 122.548L669.206 86.6686C669.206 74.0009 660.326 71.2771 652.628 71.2771C646.237 71.2771 637.117 73.8815 631.554 77.9075C628.711 72.1054 622.319 71.2771 616.517 71.2771C609.652 71.2771 599.939 74.1203 594.495 78.7359V72.4599H594.476H574.331V74.8852C580.081 76.4486 580.268 77.068 580.268 81.9112V122.545C580.268 128.112 579.928 128.466 571.287 130.716V132.847H605.625V130.716C597.1 128.466 596.745 127.992 596.745 122.545L596.626 80.8664C601.126 80.3926 605.506 80.1575 609.771 80.1575C616.047 80.1575 616.756 81.5791 616.756 87.2618L616.636 122.548C616.636 128.115 616.401 128.47 607.756 130.72V132.85H642.095V130.72C633.569 128.47 633.215 127.996 633.215 122.548L633.095 85.4857C633.095 83.7097 632.976 82.1687 632.621 80.8664C637.121 80.512 641.502 80.1575 645.882 80.1575C652.158 80.1575 652.867 81.5791 652.867 87.2618L652.748 122.548C652.748 128.115 652.513 128.47 643.867 130.72V132.85H709.295V130.72C700.769 128.47 700.415 127.996 700.415 122.548L700.422 122.545Z" fill="#005AA0"/>
<path d="M895.657 122.545L895.511 47.5947H870.202V49.7253C878.847 51.9752 879.083 52.3297 879.083 57.8968V75.3031C873.754 72.4599 867.243 71.2771 862.269 71.2771C849.124 71.3965 839.654 80.2769 839.654 100.049C839.654 123.019 844.803 134.033 863.393 134.033C868.721 134.033 874.758 132.138 881.743 129.179V132.85H904.832V130.72C896.19 128.47 895.657 128.115 895.657 122.548V122.545ZM867.295 125.977C859.598 125.977 857.411 121.123 857.411 104.191C857.411 80.6276 858.359 79.5605 869.016 79.5605C870.911 79.5605 875.765 79.5605 879.079 80.1538L879.374 124.91C874.4 125.858 870.374 125.977 867.295 125.977Z" fill="#005AA0"/>
<path d="M829.77 122.543V86.7868C829.77 74.1154 820.655 71.2759 812.957 71.2759C805.972 71.2759 795.905 74.4736 790.577 79.2086V72.4587L790.532 72.4885L790.573 72.4587H767.484V74.5892C776.13 76.8392 776.365 77.1937 776.365 82.7607V122.402C776.365 125.667 776.215 127.017 774.324 128.431C772.186 130.032 770.428 130.387 769.007 130.387C766.742 130.387 764.324 129.137 763.197 127.857C761.962 126.45 761.977 123.667 761.977 122.189V89.3912C761.977 77.5519 755.227 71.2759 743.503 71.2759C727.993 71.2759 714.138 75.7758 714.138 87.38C714.138 92.4732 716.388 95.3127 722.31 95.3127C728.231 95.3127 730.601 91.7605 730.601 87.0218C730.601 82.2831 728.944 81.1003 722.903 80.1563V79.8018C722.903 79.8018 729.179 79.4474 733.56 79.4474C744.574 79.4474 745.399 79.9212 745.399 91.7605V100.88H731.071C717.571 100.88 712.597 105.26 712.597 117.693C712.597 130.125 717.217 134.032 728.228 134.032C735.332 134.032 742.436 131.663 746.227 129.297C747.884 132.849 751.91 134.032 757.712 134.032C761.499 134.032 765.686 132.846 770.499 132.846H801.823V130.715C793.297 128.465 792.943 127.991 792.943 122.543V80.9809C797.443 80.6264 801.823 80.272 806.204 80.272C812.48 80.272 813.189 81.6936 813.189 87.6151V122.543C813.189 128.111 812.95 128.465 804.308 130.715V132.846H838.647V130.715C830.121 128.465 829.767 127.991 829.767 122.543H829.77ZM745.399 125.857C743.149 126.57 740.545 126.924 738.175 126.924C731.899 126.924 729.884 125.502 729.884 117.45C729.884 106.555 730.478 105.727 745.395 105.611V125.857H745.399Z" fill="#005AA0"/>
</svg>
