<?xml version="1.0" encoding="UTF-8"?><svg id="Lager_1" xmlns="http://www.w3.org/2000/svg" viewBox="0 0 1460.96545 160.50762"><path d="M1281.66528,92.14728l-9.48999-2.755c-8.724-2.60199-16.22498-5.81696-16.22498-14.84698,0-8.87799,6.88794-13.01099,14.84692-13.01099,8.11304,0,15.76599,4.89801,17.45007,14.54102h13.01001c-3.36707-12.55103-13.776-20.20404-28.16309-20.20404-13.92896,0-26.021,7.19403-26.021,22.04102s11.78601,18.97998,23.26501,22.34698l7.65308,2.29602c6.276,1.83698,15.00098,4.745,15.00098,14.388,0,8.72498-6.73499,13.01001-15.61304,13.01001-11.32605,0-17.90796-6.88702-20.35706-18.367h-12.85693c2.60095,14.23499,15,23.87799,31.83704,23.87799,16.07092,0,26.0199-8.41901,26.0199-21.58203,0-14.69397-12.09192-19.28595-20.35693-21.73499Z"/><path d="M668.58984,118.16828l-19.43896-24.95001,16.07098-19.59198c4.745-5.81598,8.11298-8.87799,13.776-10.255v-5.96997h-29.23499v5.96997c6.12299,0,9.18396,1.07104,9.18396,3.82599,0,1.68402-1.07196,3.98004-3.36798,7.04102l-10.255,13.92902-11.479-14.69403c-1.68402-2.14301-2.45001-3.97998-2.45001-5.66296,0-2.755,2.60303-4.43903,7.80701-4.43903v-5.96997h-33.67401v5.96997c6.888,.76501,10.867,4.745,15,10.10199l16.07202,20.664-18.97998,23.57104c-5.20404,6.58197-6.65045,9.10864-11.70148,10.33362-2.44897,.61304-4.896,.68738-6.73297,.68738-4.745,0-6.888-3.367-6.888-9.94904v-40.86798c0-13.92902-8.724-22.04102-24.64301-22.04102s-29.54102,7.80603-32.44904,25.56104h13.01001c1.98999-13.62201,9.48999-19.89801,19.59204-19.89801,8.41901,0,15,4.133,15,13.92902,0,11.32697-8.724,14.08197-19.89801,17.14294-17.90802,5.20404-28.62299,8.72504-28.62299,23.11304,0,13.01001,9.03094,19.745,20.05096,19.745,9.797,0,20.664-5.35803,27.552-15.15399,.30603,10.409,5.81598,15.15399,12.70398,15.15399,3.52106,0,6.76245-1.68402,11.32703-1.68402h27.31146v-5.96899c-6.27502,0-9.18402-1.07196-9.18402-3.82697,0-1.68402,1.07202-3.98004,3.36798-7.04102l13.01001-17.755,14.84698,18.97998c1.68402,2.14203,2.44904,3.979,2.44904,5.35699,0,3.06104-3.52002,4.28601-9.64301,4.28601v5.96899h32.909v-5.96899c-2.755-.30701-7.04102-2.75598-12.39801-9.64301Zm-87.00641-2.75598c-3.82703,5.96997-12.09204,11.47998-21.42902,11.47998-7.65302,0-13.776-3.367-13.776-13.62201,0-8.72498,4.59198-11.633,15.46002-15.15399l5.50995-1.83698c4.89801-1.68298,9.03101-3.06104,14.23505-6.42798v25.56097Z"/><path d="M757.29645,116.33131l-34.74506-89.69501h-28.92896v6.42798l6.73499,.30603c5.81598,.30701,9.02997,3.36798,9.02997,8.41901V115.56531c0,5.96997-2.75494,11.17401-10.10199,11.47998l-7.19397,.30603v6.42896h43.776v-6.42896l-8.724-.30603c-7.19403-.30597-10.10303-5.66302-10.10303-11.47998V44.23829l34.89899,87.85803h6.276l35.66302-90.00104V118.62733c0,5.20398-3.52002,8.112-9.33698,8.41797l-6.58099,.30603v6.42896h43.16296v-6.42896l-6.58099-.30603c-6.276-.30597-9.33698-3.367-9.33698-8.41797V41.78931c0-5.05103,3.367-8.112,9.18396-8.41901l6.73401-.30603v-6.42798h-29.54102l-34.28595,89.69501Z"/><path d="M468.16339,116.33131l-34.745-89.69501h-28.92902v6.42798l6.73401,.30603c5.81702,.30701,9.03101,3.36798,9.03101,8.41901V115.56531c0,5.96997-2.755,11.17401-10.10199,11.47998l-7.19397,.30603v6.42896h43.776v-6.42896l-8.72504-.30603c-7.19299-.30597-10.10199-5.66302-10.10199-11.47998V44.23829l34.89899,87.85803h6.27502l35.664-90.00104V118.62733c0,5.20398-3.52002,8.112-9.33704,8.41797l-6.58197,.30603v6.42896h43.164v-6.42896l-6.58099-.30603c-6.276-.30597-9.33704-3.367-9.33704-8.41797V41.78931c0-5.05103,3.367-8.112,9.18402-8.41901l6.73401-.30603v-6.42798h-29.54102l-34.28601,89.69501Z"/><path d="M1456.67944,127.65729c-5.35706-.30597-8.26599-3.82599-8.26599-7.65302v-37.95898c0-16.98999-9.03003-26.17401-22.80603-26.17401-9.64294,0-21.73499,4.89801-28.92896,14.388v-14.388l-22.65308,5.51001v5.66302h4.28601c5.35706,0,8.41809,3.06195,8.41809,7.65399v45c0,4.59198-2.90808,7.5-8.41809,7.95898l-4.89893,.15399v5.96899h36.73596v-5.81598l-4.89795-.30701c-5.20508-.45898-7.96008-3.06097-7.96008-7.65302v-44.84698c6.276-7.80597,16.07202-10.71497,22.80701-10.71497,11.02002,0,17.60205,7.04095,17.60205,20.81696v34.745c0,4.59204-2.755,7.19403-7.80603,7.65302l-5.05103,.30701v5.81598h36.12305v-5.96899l-4.28601-.15399Z"/><path d="M1089.66601,43.24836c5.81616,0,8.87695-3.21503,8.87695-8.26599s-3.06079-8.41803-8.87695-8.41803c-5.35693,0-8.87793,3.52002-8.87793,8.41803s3.521,8.26599,8.87793,8.26599Z"/><path d="M1216.1543,92.14728l-9.48999-2.755c-8.724-2.60199-16.224-5.81696-16.224-14.84698,0-8.87799,6.88794-13.01099,14.84692-13.01099,8.11206,0,15.76501,4.89801,17.4491,14.54102h13.00989c-3.36694-12.55103-13.7749-20.20404-28.16296-20.20404-13.92896,0-26.021,7.19403-26.021,22.04102s11.78601,18.97998,23.26599,22.34698l7.65308,2.29602c6.2749,1.83698,15,4.745,15,14.388,0,8.72498-6.73511,13.01001-15.61206,13.01001-11.32703,0-17.90894-6.88702-20.35803-18.367h-12.85693c2.60193,14.23499,15,23.87799,31.83704,23.87799,16.0719,0,26.021-8.41901,26.021-21.58203,0-14.69397-12.09204-19.28595-20.35803-21.73499Z"/><path d="M1172.38586,91.38129c0-22.19397-8.41797-35.51001-26.78491-35.51001-23.11304,0-35.97009,20.81604-35.97009,41.93903,0,19.89801,11.78601,37.65399,32.60205,37.65399,15.45898,0,25.86804-9.79602,29.23499-24.33698h-5.35706c-3.21399,9.02997-10.71497,14.08099-20.66296,14.08099-17.297,0-25.25598-14.84705-25.25598-31.53101v-2.29602h52.19397Zm-30-29.84698c10.86804,0,16.83704,9.33698,16.98999,23.41901h-38.41895c2.29602-12.55103,9.48999-23.41901,21.42896-23.41901Z"/><path d="M1370.13525,91.38129c0-22.19397-8.41797-35.51001-26.78601-35.51001-23.11194,0-35.96997,20.81604-35.96997,41.93903,0,19.89801,11.78601,37.65399,32.60303,37.65399,15.45898,0,25.86694-9.79602,29.23499-24.33698h-5.35706c-3.21497,9.02997-10.71497,14.08099-20.66394,14.08099-17.29602,0-25.255-14.84705-25.255-31.53101v-2.29602h52.19397Zm-30-29.84698c10.86707,0,16.83704,9.33698,16.98999,23.41901h-38.41895c2.29602-12.55103,9.48999-23.41901,21.42896-23.41901Z"/><path d="M958.15063,112.50428V63.98328h27.08704v-6.58197h-27.08704v-18.21399h-6.12195c-2.29602,10.56097-6.58197,17.755-18.67401,18.21399h-20.203v-18.21399h-6.12299c-2.29602,10.56097-6.58099,17.755-18.67297,18.21399v6.12299h14.08099v52.96002c0,13.00995,7.50098,18.97998,18.82697,18.97998,5.81702,0,12.70404-1.68402,19.59204-5.35803v-6.12195c-4.89801,1.83698-9.79602,2.755-13.77502,2.755-9.03101,0-13.92902-4.43903-13.92902-14.23505V63.98328h27.09204v-.00238h7.19299v52.50342c0,13.00995,7.50006,18.97998,18.82697,18.97998,5.81604,0,12.7041-1.68402,19.59204-5.35803v-6.12195c-4.89795,1.83698-9.79602,2.755-13.776,2.755-9.03101,0-13.92908-4.43903-13.92908-14.23505Z"/><path d="M881.46869,118.78028v-40.86798c0-13.92902-8.72498-22.04102-24.64301-22.04102-15.91901,0-29.54102,7.80603-32.45001,25.56104h13.01099c1.99005-13.62201,9.49005-19.89801,19.59204-19.89801,8.41797,0,15,4.133,15,13.92902,0,11.32697-8.72504,14.08197-19.89801,17.14294-17.909,5.20404-28.62299,8.72504-28.62299,23.11304,0,13.01001,9.03101,19.745,20.05096,19.745,9.79602,0,20.664-5.35803,27.552-15.15399,.30603,10.409,5.81604,15.15399,12.70404,15.15399,3.51996,0,7.5-1.22498,11.32697-3.521v-4.43903c-2.44897,.61304-4.89801,1.22504-6.73499,1.22504-4.745,0-6.888-3.367-6.888-9.94904Zm-10.71399-3.36798c-3.82703,5.96997-12.09204,11.47998-21.42902,11.47998-7.65302,0-13.776-3.367-13.776-13.62201,0-8.72498,4.59198-11.633,15.45898-15.15399l5.51099-1.83698c4.89801-1.68298,9.03003-3.06104,14.23505-6.42798v25.56097Z"/><path d="M1095.78809,120.00428V55.87128l-23.26489,5.66302v5.66296h4.28491c5.35791,0,8.41895,3.06201,8.41895,7.65405v45.15295c0,4.59204-3.06104,7.19403-8.41895,7.65302,0,0-1.38417,.10516-3.34546,.10516s-2.92749-.10516-2.92749-.10516c-5.35718-.30597-8.26514-3.82599-8.26514-7.65302v-37.95898c0-16.98999-9.03101-26.17401-22.80688-26.17401-9.33716,0-21.12305,4.59204-28.31702,13.31604V21.1034l-23.26501,5.66302v5.664h4.28601c5.35706,0,8.41797,2.90802,8.41797,7.5V119.69831c0,4.59198-2.90796,7.5-8.41797,7.95898l-3.60315,.15399v5.96899h35.44019v-5.81598l-4.89807-.30701c-5.20398-.45898-7.95996-3.06097-7.95996-7.65302v-44.84698c6.276-7.80597,16.0719-10.71497,22.80701-10.71497,11.02002,0,17.60205,7.04095,17.60205,20.81696v34.745c0,4.59204-2.75513,7.19403-7.80615,7.65302l-5.05103,.30701v5.81598h70.40698v-5.96899l-5.05078-.15399c-5.2041-.45898-8.26611-3.21399-8.26611-7.65302Z"/><polygon points="0 160.50762 107.00941 80.25381 107.00941 0 0 80.25381 0 160.50762"/><polygon points="107.00961 160.50762 214.01904 80.25381 214.01904 0 107.00961 80.25381 107.00961 160.50762"/><polygon points="214.01922 80.25381 214.01922 160.50762 321.02865 80.25381 321.02865 0 214.01922 80.25381"/></svg>