<?xml version="1.0" encoding="UTF-8" standalone="no"?>
<!-- Created with Inkscape (http://www.inkscape.org/) -->
<svg xmlns:inkscape="http://www.inkscape.org/namespaces/inkscape" xmlns:sodipodi="http://sodipodi.sourceforge.net/DTD/sodipodi-0.dtd" xmlns="http://www.w3.org/2000/svg" xmlns:svg="http://www.w3.org/2000/svg" version="1.1" id="svg2" width="1947.96" height="214.01067" viewBox="0 0 1947.96 214.01067" sodipodi:docname="MM_logo.ai">
  <defs id="defs6">
    <clipPath id="clipPath16">
      <path d="M 0,160.508 H 1460.965 V 0 H 0 Z" id="path14"></path>
    </clipPath>
  </defs>
  <g id="g8" inkscape:groupmode="layer" inkscape:label="MM_logo" transform="matrix(1.3333333,0,0,-1.3333333,0,214.01067)">
    <g id="g10">
      <g id="g12" clip-path="url(#clipPath16)">
        <g id="g18" transform="translate(1281.665,68.3602)">
          <path d="m 0,0 -9.489,2.755 c -8.725,2.602 -16.226,5.817 -16.226,14.847 0,8.878 6.888,13.011 14.847,13.011 8.113,0 15.766,-4.898 17.45,-14.541 H 19.593 C 16.226,28.623 5.816,36.276 -8.571,36.276 c -13.929,0 -26.021,-7.194 -26.021,-22.041 0,-14.847 11.786,-18.98 23.265,-22.347 l 7.653,-2.296 c 6.277,-1.837 15.001,-4.745 15.001,-14.388 0,-8.725 -6.734,-13.01 -15.613,-13.01 -11.326,0 -17.907,6.887 -20.357,18.368 H -37.5 c 2.602,-14.236 15,-23.878 31.837,-23.878 16.071,0 26.02,8.419 26.02,21.582 C 20.357,-7.041 8.266,-2.449 0,0" style="fill:#000000;fill-opacity:1;fill-rule:nonzero;stroke:none" id="path20"></path>
        </g>
        <g id="g22" transform="translate(581.5835,45.0955)">
          <path d="m 0,0 c -3.827,-5.97 -12.092,-11.48 -21.429,-11.48 -7.653,0 -13.776,3.367 -13.776,13.622 0,8.725 4.592,11.632 15.46,15.154 l 5.51,1.837 C -9.337,20.815 -5.204,22.194 0,25.561 Z M 87.006,-2.756 67.567,22.193 83.638,41.786 c 4.745,5.816 8.113,8.878 13.777,10.255 v 5.97 H 68.179 v -5.97 c 6.123,0 9.184,-1.071 9.184,-3.826 0,-1.684 -1.071,-3.98 -3.367,-7.041 L 63.74,27.245 52.261,41.939 c -1.684,2.143 -2.449,3.98 -2.449,5.663 0,2.755 2.603,4.439 7.806,4.439 v 5.97 H 23.944 v -5.97 c 6.889,-0.765 10.868,-4.745 15,-10.102 L 55.016,21.274 36.037,-2.296 c -5.204,-6.582 -6.651,-9.109 -11.702,-10.334 -2.449,-0.613 -4.896,-0.687 -6.733,-0.687 -4.745,0 -6.888,3.367 -6.888,9.949 V 37.5 c 0,13.929 -8.724,22.041 -24.643,22.041 -15.919,0 -29.541,-7.806 -32.449,-25.562 h 13.01 c 1.99,13.623 9.49,19.899 19.592,19.899 8.419,0 15,-4.133 15,-13.929 0,-11.327 -8.724,-14.082 -19.898,-17.143 -17.908,-5.204 -28.623,-8.725 -28.623,-23.114 0,-13.009 9.031,-19.744 20.051,-19.744 9.797,0 20.664,5.358 27.552,15.154 0.306,-10.41 5.816,-15.154 12.704,-15.154 3.521,0 6.762,1.684 11.327,1.684 h 27.311 v 5.969 c -6.274,0 -9.184,1.072 -9.184,3.827 0,1.683 1.073,3.98 3.369,7.041 l 13.009,17.755 14.847,-18.98 c 1.685,-2.142 2.449,-3.979 2.449,-5.357 0,-3.061 -3.52,-4.286 -9.642,-4.286 v -5.969 h 32.908 v 5.969 c -2.755,0.307 -7.041,2.755 -12.398,9.643" style="fill:#000000;fill-opacity:1;fill-rule:nonzero;stroke:none" id="path24"></path>
        </g>
        <g id="g26" transform="translate(757.2969,44.1766)">
          <path d="m 0,0 -34.746,89.695 h -28.928 v -6.428 l 6.735,-0.306 c 5.815,-0.307 9.029,-3.368 9.029,-8.419 V 0.766 c 0,-5.97 -2.755,-11.174 -10.102,-11.48 l -7.194,-0.307 v -6.428 h 43.776 v 6.428 l -8.723,0.307 c -7.195,0.306 -10.103,5.663 -10.103,11.48 V 72.093 L -5.357,-15.766 H 0.919 L 36.582,74.236 V -2.296 c 0,-5.204 -3.52,-8.112 -9.338,-8.418 l -6.58,-0.307 v -6.428 h 43.162 v 6.428 l -6.581,0.307 c -6.275,0.306 -9.337,3.366 -9.337,8.418 v 76.838 c 0,5.051 3.367,8.112 9.185,8.419 l 6.733,0.306 v 6.428 H 34.285 Z" style="fill:#000000;fill-opacity:1;fill-rule:nonzero;stroke:none" id="path28"></path>
        </g>
        <g id="g30" transform="translate(468.1636,44.1766)">
          <path d="m 0,0 -34.745,89.695 h -28.929 v -6.428 l 6.734,-0.306 c 5.817,-0.307 9.031,-3.368 9.031,-8.419 V 0.766 c 0,-5.97 -2.755,-11.174 -10.102,-11.48 l -7.194,-0.307 v -6.428 h 43.776 v 6.428 l -8.725,0.307 c -7.193,0.306 -10.102,5.663 -10.102,11.48 V 72.093 L -5.357,-15.766 H 0.918 L 36.582,74.236 V -2.296 c 0,-5.204 -3.52,-8.112 -9.337,-8.418 l -6.582,-0.307 v -6.428 h 43.164 v 6.428 l -6.581,0.307 c -6.276,0.306 -9.337,3.366 -9.337,8.418 v 76.838 c 0,5.051 3.367,8.112 9.184,8.419 l 6.734,0.306 v 6.428 H 34.286 Z" style="fill:#000000;fill-opacity:1;fill-rule:nonzero;stroke:none" id="path32"></path>
        </g>
        <g id="g34" transform="translate(1456.6797,32.8504)">
          <path d="m 0,0 c -5.357,0.306 -8.267,3.826 -8.267,7.653 v 37.959 c 0,16.99 -9.029,26.174 -22.805,26.174 -9.643,0 -21.736,-4.898 -28.929,-14.388 v 14.388 l -22.653,-5.51 v -5.663 h 4.286 c 5.356,0 8.418,-3.062 8.418,-7.654 v -45 c 0,-4.592 -2.908,-7.5 -8.418,-7.959 l -4.9,-0.154 v -5.969 h 36.737 v 5.816 L -51.43,0 c -5.205,0.459 -7.96,3.061 -7.96,7.653 V 52.5 c 6.277,7.806 16.073,10.715 22.808,10.715 11.02,0 17.602,-7.041 17.602,-20.817 V 7.653 c 0,-4.592 -2.755,-7.194 -7.806,-7.653 l -5.051,-0.307 V -6.123 H 4.286 v 5.969 z" style="fill:#000000;fill-opacity:1;fill-rule:nonzero;stroke:none" id="path36"></path>
        </g>
        <g id="g38" transform="translate(1089.666,117.2591)">
          <path d="m 0,0 c 5.816,0 8.877,3.215 8.877,8.266 0,5.051 -3.061,8.418 -8.877,8.418 -5.357,0 -8.878,-3.52 -8.878,-8.418 C -8.878,3.368 -5.357,0 0,0" style="fill:#000000;fill-opacity:1;fill-rule:nonzero;stroke:none" id="path40"></path>
        </g>
        <g id="g42" transform="translate(1216.1543,68.3602)">
          <path d="m 0,0 -9.49,2.755 c -8.724,2.602 -16.224,5.817 -16.224,14.847 0,8.878 6.888,13.011 14.847,13.011 8.112,0 15.765,-4.898 17.449,-14.541 h 13.01 C 16.225,28.623 5.817,36.276 -8.571,36.276 c -13.929,0 -26.021,-7.194 -26.021,-22.041 0,-14.847 11.786,-18.98 23.266,-22.347 l 7.653,-2.296 c 6.275,-1.837 15,-4.745 15,-14.388 0,-8.725 -6.735,-13.01 -15.612,-13.01 -11.327,0 -17.909,6.887 -20.358,18.368 H -37.5 c 2.602,-14.236 15,-23.878 31.837,-23.878 16.072,0 26.021,8.419 26.021,21.582 C 20.358,-7.041 8.266,-2.449 0,0" style="fill:#000000;fill-opacity:1;fill-rule:nonzero;stroke:none" id="path44"></path>
        </g>
        <g id="g46" transform="translate(1142.3857,98.9734)">
          <path d="M 0,0 C 10.868,0 16.837,-9.337 16.99,-23.419 H -21.429 C -19.133,-10.868 -11.938,0 0,0 m 30,-29.847 c 0,22.194 -8.418,35.51 -26.785,35.51 -23.112,0 -35.97,-20.816 -35.97,-41.939 0,-19.898 11.786,-37.654 32.602,-37.654 15.459,0 25.868,9.796 29.235,24.337 h -5.356 c -3.215,-9.03 -10.716,-14.081 -20.663,-14.081 -17.298,0 -25.257,14.847 -25.257,31.53 v 2.297 z" style="fill:#000000;fill-opacity:1;fill-rule:nonzero;stroke:none" id="path48"></path>
        </g>
        <g id="g50" transform="translate(1340.1348,98.9734)">
          <path d="M 0,0 C 10.867,0 16.838,-9.337 16.99,-23.419 H -21.429 C -19.133,-10.868 -11.938,0 0,0 m 30,-29.847 c 0,22.194 -8.418,35.51 -26.785,35.51 -23.112,0 -35.971,-20.816 -35.971,-41.939 0,-19.898 11.786,-37.654 32.604,-37.654 15.459,0 25.867,9.796 29.234,24.337 h -5.356 c -3.215,-9.03 -10.715,-14.081 -20.664,-14.081 -17.296,0 -25.255,14.847 -25.255,31.53 v 2.297 z" style="fill:#000000;fill-opacity:1;fill-rule:nonzero;stroke:none" id="path52"></path>
        </g>
        <g id="g54" transform="translate(958.1504,48.0037)">
          <path d="m 0,0 v 48.521 h 27.087 v 6.582 H 0 V 73.316 H -6.122 C -8.418,62.756 -12.704,55.562 -24.796,55.103 h -20.203 v 18.213 h -6.123 c -2.296,-10.56 -6.581,-17.754 -18.673,-18.213 v -6.124 h 14.081 V -3.98 c 0,-13.01 7.501,-18.98 18.827,-18.98 5.818,0 12.704,1.684 19.592,5.357 v 6.123 c -4.897,-1.837 -9.796,-2.755 -13.774,-2.755 -9.032,0 -13.93,4.439 -13.93,14.235 v 48.521 h 27.093 v 0.002 h 7.192 V -3.98 c 0,-13.01 7.5,-18.98 18.827,-18.98 5.817,0 12.704,1.684 19.592,5.357 v 6.123 C 22.808,-13.317 17.909,-14.235 13.93,-14.235 4.898,-14.235 0,-9.796 0,0" style="fill:#000000;fill-opacity:1;fill-rule:nonzero;stroke:none" id="path56"></path>
        </g>
        <g id="g58" transform="translate(870.7549,45.0955)">
          <path d="m 0,0 c -3.827,-5.97 -12.092,-11.48 -21.429,-11.48 -7.653,0 -13.776,3.367 -13.776,13.622 0,8.725 4.592,11.632 15.459,15.154 l 5.511,1.837 c 4.898,1.682 9.03,3.061 14.235,6.428 z M 10.714,-3.368 V 37.5 c 0,13.929 -8.725,22.041 -24.643,22.041 -15.92,0 -29.541,-7.806 -32.45,-25.562 h 13.011 c 1.99,13.623 9.49,19.899 19.592,19.899 8.418,0 15,-4.133 15,-13.929 0,-11.327 -8.725,-14.082 -19.898,-17.143 -17.909,-5.204 -28.623,-8.725 -28.623,-23.114 0,-13.009 9.03,-19.744 20.051,-19.744 9.796,0 20.664,5.358 27.552,15.154 0.306,-10.41 5.816,-15.154 12.704,-15.154 3.52,0 7.5,1.225 11.327,3.521 v 4.439 c -2.449,-0.613 -4.899,-1.225 -6.735,-1.225 -4.746,0 -6.888,3.367 -6.888,9.949" style="fill:#000000;fill-opacity:1;fill-rule:nonzero;stroke:none" id="path60"></path>
        </g>
        <g id="g62" transform="translate(1095.7881,40.5037)">
          <path d="M 0,0 V 64.133 L -23.265,58.47 v -5.663 h 4.286 c 5.357,0 8.417,-3.062 8.417,-7.655 V 0 c 0,-4.593 -3.06,-7.194 -8.417,-7.653 0,0 -1.385,-0.106 -3.346,-0.106 -1.962,0 -2.928,0.106 -2.928,0.106 -5.357,0.305 -8.266,3.826 -8.266,7.653 v 37.959 c 0,16.99 -9.03,26.174 -22.806,26.174 -9.337,0 -21.123,-4.592 -28.317,-13.317 V 98.9 l -23.265,-5.663 v -5.664 h 4.286 c 5.357,0 8.418,-2.907 8.418,-7.5 V 0.306 c 0,-4.592 -2.908,-7.5 -8.418,-7.959 l -3.603,-0.155 v -5.968 h 35.44 v 5.816 l -4.898,0.307 c -5.204,0.459 -7.96,3.06 -7.96,7.653 v 44.847 c 6.276,7.805 16.072,10.715 22.807,10.715 11.02,0 17.602,-7.041 17.602,-20.818 V 0 c 0,-4.593 -2.755,-7.194 -7.806,-7.653 L -57.09,-7.96 v -5.816 h 70.407 v 5.968 l -5.05,0.155 C 3.062,-7.194 0,-4.439 0,0" style="fill:#000000;fill-opacity:1;fill-rule:nonzero;stroke:none" id="path64"></path>
        </g>
        <g id="g66" transform="translate(0,-2e-4)">
          <path d="m 0,0 107.009,80.254 v 80.254 L 0,80.254 Z" style="fill:#000000;fill-opacity:1;fill-rule:nonzero;stroke:none" id="path68"></path>
        </g>
        <g id="g70" transform="translate(107.0098,-2e-4)">
          <path d="m 0,0 107.009,80.254 v 80.254 L 0,80.254 Z" style="fill:#000000;fill-opacity:1;fill-rule:nonzero;stroke:none" id="path72"></path>
        </g>
        <g id="g74" transform="translate(214.019,80.2537)">
          <path d="M 0,0 V -80.254 L 107.01,0 v 80.254 z" style="fill:#000000;fill-opacity:1;fill-rule:nonzero;stroke:none" id="path76"></path>
        </g>
      </g>
    </g>
  </g>
</svg>
