<?xml version="1.0" encoding="UTF-8"?>
<svg width="100px" height="25px" viewBox="0 0 100 25" version="1.1" xmlns="http://www.w3.org/2000/svg" xmlns:xlink="http://www.w3.org/1999/xlink">
    <!-- Generator: Sketch 48.2 (47327) - http://www.bohemiancoding.com/sketch -->
    <title>Group 41</title>
    <desc>Created with Sketch.</desc>
    <defs></defs>
    <g id="Page-1" stroke="none" stroke-width="1" fill="none" fill-rule="evenodd">
        <g id="Group-41" transform="translate(0.000000, -0.111000)">
            <path d="M0.39421157,1.04958655 L4.34049382,1.04958655 C7.78099136,1.04958655 8.35867524,3.02313752 8.35867524,4.18016357 C8.35867524,6.36032926 6.84627703,7.39916907 4.78512359,7.39916907 L3.06446183,7.39916907 L3.00495885,11.3156967 L0.304134273,11.3156967 L0.39421157,1.04958655 Z M2.96033005,5.44049541 L4.16115892,5.44049541 C4.80000406,5.44049541 5.69008327,5.26281249 5.69008327,4.22396639 C5.69008327,3.37933566 5.17190236,3.00826336 4.10248193,3.00826336 L3.01818103,3.00826336 L2.96033005,5.44049541 Z" id="Fill-1" fill="#455560"></path>
            <path d="M13.7520645,11.315703 L11.0512399,11.315703 L11.1404975,1.04958655 L15.1760374,1.04958655 C17.3124002,1.04958655 19.1074391,1.61322226 19.1074391,3.94215169 C19.152068,5.41074708 18.1132219,6.5380185 16.6438005,6.59834746 L16.6438005,6.62727611 C17.2380168,6.80579133 17.6834726,7.44215219 18.0545449,8.11074567 L19.8487578,11.315703 L16.8371899,11.315703 L15.3694205,8.4677698 C15.0570251,7.84380513 14.8049588,7.39917537 14.2123944,7.39917537 L13.8115674,7.39917537 L13.7520645,11.315703 Z M13.7074357,5.44049541 L14.9090905,5.44049541 C15.5462837,5.44049541 16.4371889,5.26281249 16.4371889,4.22396639 C16.4371889,3.37933566 15.918182,3.00826336 14.8495876,3.00826336 L13.766119,3.00826336 L13.7074357,5.44049541 Z" id="Fill-3" fill="#455560"></path>
            <path d="M27.3925581,0.75289138 C30.8785104,0.75289138 32.9256157,3.20000076 32.9256157,6.18181405 C32.9256157,9.16362733 30.8776844,11.6107399 27.3925581,11.6107399 C23.8917316,11.6107399 21.8454523,9.16363364 21.8454523,6.18181405 C21.8454523,3.19999445 23.8909056,0.75289138 27.3925581,0.75289138 M27.3768579,9.47686127 C28.9198304,9.47686127 30.1661141,8.43636318 30.1661141,6.18264635 C30.1661141,3.92727121 28.9198304,2.8900834 27.3768579,2.8900834 C25.8495855,2.8900834 24.6033019,3.92809721 24.6033019,6.18264635 C24.6033019,8.43636318 25.8495855,9.47686127 27.3768579,9.47686127" id="Fill-5" fill="#455560"></path>
            <polygon id="Fill-7" fill="#455560" points="34.7578494 1.04958655 43.1528947 1.04958655 43.1528947 3.18512659 40.3785064 3.18512659 40.2892488 11.315703 37.6198308 11.315703 37.7082624 3.18512659 34.7578494 3.18512659"></polygon>
            <polygon id="Fill-9" fill="#455560" points="46.1008297 1.04958655 53.19256 1.04958655 53.19256 3.18512659 48.7859478 3.18512659 48.7570192 5.15868071 53.1487635 5.15868071 53.1487635 7.20661198 48.742971 7.20661198 48.7115707 9.17934011 53.1049544 9.17934011 53.1049544 11.315703 46.0132241 11.315703"></polygon>
            <path d="M64.1066043,3.42396447 C63.513214,3.06694033 62.6082543,2.8900771 61.9694155,2.8900771 C60.026442,2.8900771 58.573553,4.18181556 58.573553,6.15371139 C58.573553,8.00743358 59.7297531,9.47685497 61.6743786,9.47685497 C62.7272729,9.47685497 63.1578481,9.20991443 63.9727305,8.94296759 L64.759504,10.8561928 C64.0322272,11.2570197 62.8471111,11.6115659 61.3611572,11.6115659 C57.9057856,11.6115659 55.8140452,9.41817798 55.8140452,6.09420842 C55.8140452,2.8900771 57.9652822,0.753714215 61.7033072,0.753714215 C63.0983515,0.753714215 64.2405034,1.06528355 64.9231387,1.49586199 L64.1066043,3.42396447 Z" id="Fill-11" fill="#455560"></path>
            <polygon id="Fill-13" fill="#455560" points="66.96281 1.04958655 75.3595073 1.04958655 75.3595073 3.18512659 72.5851189 3.18512659 72.4966936 11.315703 69.8256237 11.315703 69.915701 3.18512659 66.96281 3.18512659"></polygon>
            <path d="M82.7396665,0.75289138 C86.2239669,0.75289138 88.2727304,3.20000076 88.2727304,6.18181405 C88.2727304,9.16362733 86.2239669,11.6107399 82.7396665,11.6107399 C79.2371817,11.6107399 77.1909025,9.16363364 77.1909025,6.18181405 C77.1909025,3.19999445 79.2371943,0.75289138 82.7396665,0.75289138 M82.7256183,9.47686127 C84.2661129,9.47686127 85.5140422,8.43636318 85.5140422,6.18264635 C85.5140422,3.92727121 84.2661129,2.8900834 82.7256183,2.8900834 C81.1966877,2.8900834 79.9504103,3.92809721 79.9504103,6.18264635 C79.9495906,8.43636318 81.1966877,9.47686127 82.7256183,9.47686127" id="Fill-15" fill="#455560"></path>
            <path d="M93.5380215,11.315703 L90.8388426,11.315703 L90.9264482,1.04958655 L94.9603298,1.04958655 C97.098351,1.04958655 98.8925576,1.61322226 98.8925576,3.94215169 C98.9380061,5.41074708 97.8991726,6.5380185 96.4305709,6.59834746 L96.4305709,6.62727611 C97.0231289,6.80579133 97.469417,7.44215219 97.840483,8.11074567 L99.6347022,11.315703 L96.6231343,11.315703 L95.1537129,8.4677698 C94.8429632,7.84380513 94.5909032,7.39917537 93.9983451,7.39917537 L93.5983505,7.39917537 L93.5380215,11.315703 Z M93.4942124,5.44049541 L94.6942089,5.44049541 C95.3322281,5.44049541 96.2231396,5.26281249 96.2231396,4.22396639 C96.2231396,3.37933566 95.7041264,3.00826336 94.6363643,3.00826336 L93.5528894,3.00826336 L93.4942124,5.44049541 Z" id="Fill-17" fill="#455560"></path>
            <path d="M63.3677637,6.09091075 C63.3677637,6.93223121 62.6884197,7.61156888 61.8471055,7.61156888 C61.0074308,7.61156888 60.3264474,6.93223121 60.3264474,6.09091075 C60.3264474,5.2504163 61.0074434,4.56942033 61.8471055,4.56942033 C62.6884323,4.56942033 63.3677637,5.2504163 63.3677637,6.09091075" id="Fill-19" fill="#F58025"></path>
            <path d="M54.7909118,18.0727298 L54.7909118,22.1504142 L54.1148844,22.1504142 L54.1148844,18.0727298 L53.5231461,18.0727298 L53.5231461,17.5553749 L54.1148844,17.5553749 L54.1148844,16.6818219 C54.1148844,15.9958699 54.5000112,15.4421524 55.2892689,15.4421524 L55.7777015,15.4421524 L55.7777015,16.0247986 L55.4115915,16.0247986 C54.9801839,16.0247986 54.7917567,16.2785169 54.7917567,16.7008323 L54.7917567,17.5545489 L55.7777015,17.5545489 L55.7777015,18.0719039 L54.7909118,18.0719039 L54.7909118,18.0727298 Z" id="Fill-21" fill="#455560"></path>
            <path d="M60.3512398,21.6801661 C60.0314105,22.0000017 59.5900784,22.2066132 59.026449,22.2066132 C58.4619873,22.2066132 58.0206678,22.0000017 57.700826,21.6801661 C57.2314101,21.2016517 57.137184,20.5528947 57.137184,19.8388464 C57.137184,19.1239721 57.2305778,18.4768608 57.700826,17.9966944 C58.0206552,17.6768589 58.4619873,17.4702473 59.026449,17.4702473 C59.590091,17.4702473 60.0314105,17.6768589 60.3512398,17.9966944 C60.8206556,18.4760348 60.9157015,19.1231398 60.9157015,19.8388464 C60.9157015,20.5528947 60.8214879,21.2016517 60.3512398,21.6801661 Z M57.6933857,16.4950404 L57.6933857,15.6586759 L58.3694131,15.6586759 L58.3694131,16.4950404 L57.6933857,16.4950404 Z M59.8718994,18.4107435 C59.6561956,18.1942138 59.3553705,18.0727298 59.0272687,18.0727298 C58.6983472,18.0727298 58.4066017,18.1942201 58.1909105,18.4107435 C57.8528968,18.7487573 57.814876,19.3223112 57.814876,19.8396661 C57.814876,20.356195 57.8528968,20.928923 58.1909105,21.2677626 C58.4066143,21.4834664 58.6975275,21.6057763 59.0272687,21.6057763 C59.3553705,21.6057763 59.6570153,21.4834601 59.8718994,21.2677626 C60.2099131,20.9297489 60.2380095,20.356195 60.2380095,19.8396661 C60.2388418,19.3223112 60.2107454,18.7487573 59.8718994,18.4107435 Z M59.6851243,16.4950404 L59.6851243,15.6586759 L60.3611517,15.6586759 L60.3611517,16.4950404 L59.6851243,16.4950404 Z" id="Fill-23" fill="#455560"></path>
            <path d="M65.414043,18.4107435 C65.1603183,18.1570252 64.9727235,18.0727298 64.6148733,18.0727298 C63.9388459,18.0727298 63.506606,18.6074432 63.506606,19.3132253 L63.506606,22.1504142 L62.8305786,22.1504142 L62.8305786,17.5280983 L63.506606,17.5280983 L63.506606,18.091734 C63.7603307,17.7066072 64.2677674,17.4718993 64.8024682,17.4718993 C65.2437877,17.4718993 65.5818014,17.575205 65.9115551,17.9041328 L65.414043,18.4107435 Z" id="Fill-25" fill="#455560"></path>
            <path d="M68.6165223,22.2066132 C67.8371891,22.2066132 67.2256143,22.028098 66.7189973,21.5388458 L67.169409,21.088434 C67.535519,21.4735608 68.0338761,21.6231474 68.6065978,21.6231474 C69.3677591,21.6231474 69.837175,21.3512446 69.837175,20.8057933 C69.837175,20.4024884 69.602467,20.1760404 69.0669214,20.1297596 L68.30576,20.0644684 C67.4032846,19.989259 66.924764,19.585128 66.924764,18.823973 C66.924764,17.9785163 67.6379925,17.4710796 68.6255893,17.4710796 C69.2826126,17.4710796 69.8751706,17.6305844 70.2883938,17.9694241 L69.8470743,18.4107435 C69.5181528,18.1570252 69.0958374,18.0446272 68.6164971,18.0446272 C67.9404697,18.0446272 67.5826069,18.3363601 67.5826069,18.8057822 C67.5826069,19.200821 67.8082226,19.4355352 68.3917011,19.481816 L69.133026,19.5471072 C69.9412878,19.6231426 70.4950053,19.93306 70.4950053,20.7975208 C70.4958629,21.6892583 69.7347141,22.2066132 68.6165223,22.2066132 Z" id="Fill-27" fill="#455560"></path>
            <path d="M74.9099153,22.1504142 L74.9099153,21.7090947 C74.534713,22.0851293 74.1966867,22.2074392 73.5760323,22.2074392 C72.9380131,22.2074392 72.5611589,22.085949 72.2702456,21.7842979 C72.0454496,21.5595019 71.9231397,21.2115699 71.9231397,20.8446276 C71.9231397,20.0363658 72.4867817,19.5107446 73.5206593,19.5107446 L74.9107476,19.5107446 L74.9107476,19.0694251 C74.9107476,18.3933914 74.5727339,18.0545517 73.7272708,18.0545517 C73.1347128,18.0545517 72.8347073,18.1950461 72.5619786,18.5809989 L72.1016423,18.1578575 C72.5148655,17.6223181 72.9842813,17.4719056 73.7363504,17.4719056 C74.9768522,17.4719056 75.5875947,18.0074449 75.5875947,19.0124001 L75.5875947,22.1504142 L74.9099153,22.1504142 Z M72.4760375,16.4950404 L72.4760375,15.6586759 L73.1528972,15.6586759 L73.1528972,16.4950404 L72.4760375,16.4950404 Z M74.9099153,20.0173553 L73.6140531,20.0173553 C72.919009,20.0173553 72.5809953,20.3000023 72.5809953,20.8355354 C72.5809953,21.3702487 72.9090971,21.6239671 73.6421495,21.6239671 C74.0371882,21.6239671 74.3842941,21.5958707 74.6752073,21.3140497 C74.8347058,21.1628112 74.9099153,20.9008266 74.9099153,20.5156998 L74.9099153,20.0173553 Z M74.4677635,16.4950404 L74.4677635,15.6586759 L75.1437909,15.6586759 L75.1437909,16.4950404 L74.4677635,16.4950404 Z" id="Fill-29" fill="#455560"></path>
            <polygon id="Fill-31" fill="#455560" points="80.7421523 22.1504142 79.2768672 19.7834734 78.3752115 20.8165312 78.3752115 22.1504142 77.6991841 22.1504142 77.6991841 15.4611566 78.3752115 15.4611566 78.3752115 19.93306 80.4603313 17.5280983 81.3057817 17.5280983 79.7371908 19.2942148 81.5785105 22.1504142"></polygon>
            <path d="M85.7859513,18.4107435 C85.5322267,18.1570252 85.3446319,18.0727298 84.9867817,18.0727298 C84.3107543,18.0727298 83.8785144,18.6074432 83.8785144,19.3132253 L83.8785144,22.1504142 L83.202487,22.1504142 L83.202487,17.5280983 L83.8785144,17.5280983 L83.8785144,18.091734 C84.1322391,17.7066072 84.6396758,17.4718993 85.1743766,17.4718993 C85.615696,17.4718993 85.9537098,17.575205 86.2834635,17.9041328 L85.7859513,18.4107435 Z" id="Fill-33" fill="#455560"></path>
            <path d="M87.5875982,16.2123997 L87.5875982,15.4512447 L88.3487595,15.4512447 L88.3487595,16.2123997 L87.5875982,16.2123997 Z M87.625619,22.1504142 L87.625619,17.5280983 L88.3016465,17.5280983 L88.3016465,22.1504142 L87.625619,22.1504142 Z" id="Fill-35" fill="#455560"></path>
            <path d="M93.4313991,22.1504142 L93.4313991,19.304133 C93.4313991,18.486779 92.9900796,18.0735558 92.2950355,18.0735558 C91.5999913,18.0735558 91.14876,18.4966972 91.14876,19.304133 L91.14876,22.1504142 L90.4727325,22.1504142 L90.4727325,17.5280983 L91.14876,17.5280983 L91.14876,18.034709 C91.4768617,17.6595004 91.9280931,17.4710733 92.4446221,17.4710733 C92.9429666,17.4710733 93.3470975,17.6214858 93.6289185,17.9033068 C93.9570203,18.2223164 94.1082588,18.6537177 94.1082588,19.190083 L94.1082588,22.1495882 L93.4313991,22.1495882 L93.4313991,22.1504142 Z" id="Fill-37" fill="#455560"></path>
            <path d="M97.7049572,24.2735549 C97.0090934,24.2735549 96.6239666,24.0942137 96.1363663,23.6537202 L96.5776858,23.2214866 C96.9156995,23.5214858 97.1504074,23.6818166 97.6867727,23.6818166 C98.5785039,23.6818166 98.9545385,23.0520636 98.9545385,22.2628059 L98.9545385,21.5388458 C98.5785039,22.0181861 98.1561886,22.141322 97.6586764,22.141322 C97.1892606,22.141322 96.7842973,21.971899 96.5396649,21.7272729 C96.0793287,21.266943 95.9760229,20.5528947 95.9760229,19.8016515 C95.9760229,19.0504084 96.0793287,18.3363601 96.5396649,17.8752042 C96.7842973,17.631404 97.1975205,17.4718993 97.6669363,17.4718993 C98.174373,17.4718993 98.5875962,17.5851233 98.9636307,18.0735495 L98.9636307,17.5289243 L99.6305785,17.5289243 L99.6305785,22.2925606 C99.6305785,23.4371904 98.9165303,24.2735549 97.7049572,24.2735549 Z M97.808263,18.0727298 C96.8024818,18.0727298 96.6528952,18.9371907 96.6528952,19.8016578 C96.6528952,20.666125 96.8033141,21.5297598 97.808263,21.5297598 C98.8132245,21.5297598 98.9545385,20.666125 98.9545385,19.8016578 C98.9545385,18.9371907 98.8123922,18.0727298 97.808263,18.0727298 Z" id="Fill-39" fill="#455560"></path>
        </g>
    </g>
</svg>