<?xml version="1.0" encoding="UTF-8" standalone="no"?>
<svg
   xmlns:dc="http://purl.org/dc/elements/1.1/"
   xmlns:cc="http://creativecommons.org/ns#"
   xmlns:rdf="http://www.w3.org/1999/02/22-rdf-syntax-ns#"
   xmlns:svg="http://www.w3.org/2000/svg"
   xmlns="http://www.w3.org/2000/svg"
   viewBox="0 0 453 360.37332"
   height="360.37332"
   width="453"
   xml:space="preserve"
   id="svg2"
   version="1.1"><metadata
     id="metadata8"><rdf:RDF><cc:Work
         rdf:about=""><dc:format>image/svg+xml</dc:format><dc:type
           rdf:resource="http://purl.org/dc/dcmitype/StillImage" /></cc:Work></rdf:RDF></metadata><defs
     id="defs6"><clipPath
       id="clipPath18"
       clipPathUnits="userSpaceOnUse"><path
         id="path16"
         d="M 0,270.28 H 339.75 V 0 H 0 Z" /></clipPath></defs><g
     transform="matrix(1.3333333,0,0,-1.3333333,0,360.37333)"
     id="g10"><g
       id="g12"><g
         clip-path="url(#clipPath18)"
         id="g14"><g
           transform="translate(168.3872,203.8155)"
           id="g20"><path
             id="path22"
             style="fill:#e8e8e8;fill-opacity:1;fill-rule:nonzero;stroke:none"
             d="m 0,0 c -37.925,0 -68.674,-30.751 -68.674,-68.676 0,-37.923 30.749,-68.676 68.674,-68.676 37.93,0 68.68,30.753 68.68,68.676 C 68.68,-30.751 37.93,0 0,0 m 135.142,-68.676 c 0,-74.634 -60.502,-135.14 -135.142,-135.14 -74.634,0 -135.135,60.506 -135.135,135.14 0,74.634 60.501,135.14 135.135,135.14 74.64,0 135.142,-60.506 135.142,-135.14" /></g><g
           transform="translate(106.1211,187.148)"
           id="g24"><path
             id="path26"
             style="fill:#ffffff;fill-opacity:1;fill-rule:nonzero;stroke:none"
             d="m 0,0 c 14.881,17.801 37.255,29.124 62.266,29.124 24.27,0 46.051,-10.659 60.917,-27.547 l 30.921,27.751 C 131.632,54.685 98.815,70.67 62.266,70.67 25.739,70.67 -7.066,54.699 -29.544,29.359 Z" /></g><g
           transform="translate(106.8013,82.3257)"
           id="g28"><path
             id="path30"
             style="fill:#ffffff;fill-opacity:1;fill-rule:nonzero;stroke:none"
             d="m 0,0 c 14.882,-17.335 36.955,-28.32 61.586,-28.32 24.41,0 46.3,10.78 61.172,27.837 l 30.92,-27.749 C 131.194,-53.757 98.27,-69.865 61.586,-69.865 c -36.902,0 -69.997,16.301 -92.485,42.089 z" /></g></g></g></g></svg>