<?xml version="1.0" encoding="UTF-8" standalone="no"?>
<svg
   xmlns:dc="http://purl.org/dc/elements/1.1/"
   xmlns:cc="http://creativecommons.org/ns#"
   xmlns:rdf="http://www.w3.org/1999/02/22-rdf-syntax-ns#"
   xmlns:svg="http://www.w3.org/2000/svg"
   xmlns="http://www.w3.org/2000/svg"
   viewBox="0 0 116.01333 38.533333"
   height="38.533333"
   width="116.01333"
   xml:space="preserve"
   id="svg2"
   version="1.1"><metadata
     id="metadata8"><rdf:RDF><cc:Work
         rdf:about=""><dc:format>image/svg+xml</dc:format><dc:type
           rdf:resource="http://purl.org/dc/dcmitype/StillImage" /></cc:Work></rdf:RDF></metadata><defs
     id="defs6"><clipPath
       id="clipPath18"
       clipPathUnits="userSpaceOnUse"><path
         id="path16"
         d="M 0,28.9 H 87.01 V 0 H 0 Z" /></clipPath></defs><g
     transform="matrix(1.3333333,0,0,-1.3333333,0,38.533333)"
     id="g10"><g
       id="g12"><g
         clip-path="url(#clipPath18)"
         id="g14"><g
           transform="translate(22,21.7899)"
           id="g20"><path
             id="path22"
             style="fill:#1e787f;fill-opacity:1;fill-rule:nonzero;stroke:none"
             d="M 0,0 C -2.891,-0.009 -5.411,-1.97 -6.13,-4.77 L -7.8,-10.55 V 3.57 C -8.961,3.577 -10.101,3.258 -11.09,2.65 -12.541,1.798 -13.589,0.401 -14,-1.23 l -1.7,-5.78 V 7.11 C -19.183,7.099 -22,4.272 -22,0.79 v -15.46 c 2.98,0.004 5.554,2.087 6.18,5 l 1.66,5.61 v -14.19 c 2.991,0.003 5.579,2.081 6.23,5 l 1.67,5.61 v -14.15 c 3.485,0 6.31,2.825 6.31,6.31 v 0.01 L 0.05,0 Z" /></g><g
           transform="translate(34.73,19.6)"
           id="g24"><path
             id="path26"
             style="fill:#4a4a49;fill-opacity:1;fill-rule:nonzero;stroke:none"
             d="m 0,0 h 1.62 l -2.16,-7.2 h -1.27 l -1.5,3.72 -1.49,-3.72 h -1.24 l -2.17,7.21 h 1.63 l 1.32,-4.71 1.53,4.09 h 0.82 l 1.59,-4.09 z" /></g><g
           transform="translate(38.9302,18.31)"
           id="g28"><path
             id="path30"
             style="fill:#4a4a49;fill-opacity:1;fill-rule:nonzero;stroke:none"
             d="m 0,0 v -2 h 1.19 c 0.77,0 1.15,0.41 1.15,1 0,0.59 -0.43,1 -1.19,1 z M 2.37,-3.05 4.24,-5.92 H 2.53 l -1.69,2.65 h -0.85 v -2.64 h -1.53 v 7.2 H 1.24 C 2.86,1.29 3.89,0.4 3.89,-0.99 3.905,-1.941 3.283,-2.784 2.37,-3.05" /></g><path
           id="path32"
           style="fill:#4a4a49;fill-opacity:1;fill-rule:nonzero;stroke:none"
           d="m 45.9,12.4 h -1.521 v 7.2 H 45.9 Z" /><g
           transform="translate(46.8604,19.6)"
           id="g34"><path
             id="path36"
             style="fill:#4a4a49;fill-opacity:1;fill-rule:nonzero;stroke:none"
             d="M 0,0 H 5.87 V -1.43 H 3.699 V -7.2 H 2.14 v 5.78 l -2.14,0 z" /></g><g
           transform="translate(53.2402,19.6)"
           id="g38"><path
             id="path40"
             style="fill:#4a4a49;fill-opacity:1;fill-rule:nonzero;stroke:none"
             d="M 0,0 H 5.87 V -1.43 H 3.7 V -7.2 H 2.17 v 5.78 l -2.17,0 z" /></g><g
           transform="translate(60.0801,19.6)"
           id="g42"><path
             id="path44"
             style="fill:#4a4a49;fill-opacity:1;fill-rule:nonzero;stroke:none"
             d="M 0,0 H 5 V -1.35 H 1.53 v -1.53 h 3 v -1.21 h -3 v -1.76 h 3.6 V -7.2 H 0.02 V 0 Z" /></g><g
           transform="translate(72.75,12.3998)"
           id="g46"><path
             id="path48"
             style="fill:#4a4a49;fill-opacity:1;fill-rule:nonzero;stroke:none"
             d="M 0,0 H -1.31 L -4.68,4.56 V 0 H -6.2 v 7.2 h 1.3 L -1.54,2.62 V 7.2 h 1.53 V 0 Z" /></g><path
           id="path50"
           style="fill:#4a4a49;fill-opacity:1;fill-rule:nonzero;stroke:none"
           d="m 28.61,3.32 h -1.52 v 7.21 h 1.52 z" /><g
           transform="translate(36.4702,3.3197)"
           id="g52"><path
             id="path54"
             style="fill:#4a4a49;fill-opacity:1;fill-rule:nonzero;stroke:none"
             d="M 0,0 H -1.32 L -4.68,4.58 V 0.021 H -6.21 V 7.21 H -4.9 L -1.54,2.641 V 7.21 h 1.53 l 0,-7.21 z" /></g><g
           transform="translate(41.7598,8.7201)"
           id="g56"><path
             id="path58"
             style="fill:#4a4a49;fill-opacity:1;fill-rule:nonzero;stroke:none"
             d="m 0,0 c -0.352,0.407 -0.861,0.644 -1.4,0.649 -0.73,0 -1,-0.379 -1,-0.75 0,-0.369 0.24,-0.629 0.81,-0.769 l 0.85,-0.24 c 1.31,-0.38 2,-1.15 2,-2.21 0,-1.06 -0.94,-2.19 -2.7,-2.19 -1.011,-0.008 -1.975,0.427 -2.64,1.19 l 1,0.94 c 0.412,-0.495 1.017,-0.79 1.66,-0.81 0.83,0 1.18,0.43 1.18,0.85 0,0.42 -0.3,0.72 -1,0.94 L -2,-2.16 c -1.22,0.38 -1.87,1 -1.87,2.059 0.108,1.216 1.181,2.115 2.396,2.007 0.022,-0.002 0.043,-0.004 0.064,-0.007 0.891,0.023 1.748,-0.341 2.35,-1 z" /></g><g
           transform="translate(44.2002,10.5297)"
           id="g60"><path
             id="path62"
             style="fill:#4a4a49;fill-opacity:1;fill-rule:nonzero;stroke:none"
             d="M 0,0 H 1.53 V -4.38 C 1.502,-5.152 2.105,-5.802 2.879,-5.829 2.905,-5.83 2.933,-5.83 2.96,-5.83 c 0.784,-0.011 1.429,0.616 1.44,1.4 0,0.017 0,0.034 -0.001,0.05 V 0 H 5.93 V -4.38 C 5.678,-6.018 4.146,-7.14 2.508,-6.888 1.214,-6.688 0.199,-5.674 0,-4.38 Z" /></g><g
           transform="translate(53.1904,9.1898)"
           id="g64"><path
             id="path66"
             style="fill:#4a4a49;fill-opacity:1;fill-rule:nonzero;stroke:none"
             d="m 0,0 v -2 h 1.189 c 0.76,0 1.151,0.41 1.151,1 0,0.59 -0.431,1 -1.191,1 z M 2.38,-3 4.26,-5.87 H 2.54 L 0.859,-3.22 H 0 V -5.87 H -1.521 V 1.34 H 1.26 C 2.88,1.34 3.909,0.45 3.909,-0.93 3.936,-1.89 3.305,-2.743 2.38,-3" /></g><g
           transform="translate(60.8096,6.06)"
           id="g68"><path
             id="path70"
             style="fill:#4a4a49;fill-opacity:1;fill-rule:nonzero;stroke:none"
             d="M 0,0 H 1.811 L 0.9,2.5 Z m 2.19,-1.16 h -2.57 l -0.63,-1.6 H -2.649 L 0.24,4.45 h 1.38 l 2.891,-7.21 h -1.66 z" /></g><g
           transform="translate(72.6699,3.3197)"
           id="g72"><path
             id="path74"
             style="fill:#4a4a49;fill-opacity:1;fill-rule:nonzero;stroke:none"
             d="M 0,0 H -1.31 L -4.67,4.58 V 0.021 H -6.2 V 7.21 h 1.3 L -1.54,2.641 V 7.21 h 1.53 l 0,-7.21 z" /></g><g
           transform="translate(77.6904,4.6898)"
           id="g76"><path
             id="path78"
             style="fill:#4a4a49;fill-opacity:1;fill-rule:nonzero;stroke:none"
             d="M 0,0 C 0.717,0.011 1.397,0.318 1.88,0.851 L 3.029,-0.05 C 2.295,-0.955 1.195,-1.486 0.029,-1.5 -2.03,-1.544 -3.735,0.091 -3.778,2.15 -3.822,4.21 -2.188,5.915 -0.129,5.958 1.059,5.983 2.187,5.442 2.909,4.5 L 1.699,3.641 C 1.269,4.144 0.643,4.438 -0.021,4.45 -1.213,4.439 -2.172,3.465 -2.162,2.271 -2.162,2.251 -2.161,2.23 -2.16,2.21 -2.172,1.005 -1.206,0.017 0,0" /></g><g
           transform="translate(81.9004,10.5297)"
           id="g80"><path
             id="path82"
             style="fill:#4a4a49;fill-opacity:1;fill-rule:nonzero;stroke:none"
             d="M 0,0 H 5 V -1.35 H 1.51 v -1.52 h 3 v -1.21 h -3 V -5.84 H 5.1 V -7.189 H 0 Z" /></g></g></g></g></svg>