<?xml version="1.0" encoding="UTF-8" standalone="no"?>
<svg
   xmlns:dc="http://purl.org/dc/elements/1.1/"
   xmlns:cc="http://creativecommons.org/ns#"
   xmlns:rdf="http://www.w3.org/1999/02/22-rdf-syntax-ns#"
   xmlns:svg="http://www.w3.org/2000/svg"
   xmlns="http://www.w3.org/2000/svg"
   viewBox="0 0 604 480.49734"
   height="480.49734"
   width="604"
   xml:space="preserve"
   id="svg2"
   version="1.1"><metadata
     id="metadata8"><rdf:RDF><cc:Work
         rdf:about=""><dc:format>image/svg+xml</dc:format><dc:type
           rdf:resource="http://purl.org/dc/dcmitype/StillImage" /></cc:Work></rdf:RDF></metadata><defs
     id="defs6"><clipPath
       id="clipPath18"
       clipPathUnits="userSpaceOnUse"><path
         id="path16"
         d="M 0,360.373 H 453 V 0 H 0 Z" /></clipPath></defs><g
     transform="matrix(1.3333333,0,0,-1.3333333,0,480.49733)"
     id="g10"><g
       id="g12"><g
         clip-path="url(#clipPath18)"
         id="g14"><g
           transform="translate(364.3164,271.6661)"
           id="g20"><path
             id="path22"
             style="fill:#e8e8e8;fill-opacity:1;fill-rule:nonzero;stroke:none"
             d="m 0,0 c -36.829,0 -67.719,-25.345 -76.431,-59.402 l -21.384,-72.075 V 44.552 c -15.049,0 -29.108,-4.158 -40.988,-11.485 -17.623,-10.494 -30.889,-27.721 -36.037,-48.314 l -21.187,-72.074 V 88.707 c -43.562,0 -78.807,-35.245 -78.807,-78.807 v -192.859 c 37.819,0 69.501,26.731 77.025,62.175 l 20.79,69.896 v -176.623 c 15.049,0 29.107,4.158 40.988,11.485 18.415,11.089 32.077,29.503 36.632,51.086 l 20.79,69.896 v -176.622 c 43.562,0 78.807,35.245 78.807,78.807 L 0.198,0 Z" /></g></g></g></g></svg>